<svg width="379" height="159" viewBox="0 0 379 159" fill="none" xmlns="http://www.w3.org/2000/svg">
<path d="M114.725 20.8418C110.296 10.7731 90.8058 7.0636 90.8058 7.0636C90.8058 7.0636 90.3628 10.7731 87.7051 14.4826C85.0474 18.1921 82.8326 20.3118 82.8326 20.3118C82.8326 20.3118 79.7319 22.4316 78.403 24.5513C77.0742 26.671 76.6312 27.7308 73.5305 32.5002C70.4298 37.7995 66.8862 43.6287 62.4567 48.3981C58.0271 53.1674 58.913 54.7572 55.8123 60.0565C52.7116 65.3558 41.1948 83.3734 41.1948 83.3734L36.3223 89.7326L28.7921 102.451C28.7921 102.451 20.3759 116.229 16.3893 119.939C12.8457 123.648 16.3893 119.939 15.9464 123.118C15.5034 126.298 0 144.315 0 144.315L0.442955 147.495C0.442955 147.495 0.442955 147.495 3.10069 151.204C5.75842 154.914 3.10069 151.204 6.64433 152.794L9.74501 152.264C9.74501 152.264 9.74501 152.264 12.8457 150.674L16.3893 146.435C16.3893 146.435 16.3893 146.435 16.8323 142.726C17.2752 139.016 19.49 136.896 19.49 136.896L22.5907 131.597C22.5907 131.597 22.5907 131.597 23.0337 128.417C23.4766 125.238 23.0337 128.417 24.3625 124.178C25.6914 119.939 24.3625 124.178 27.0203 120.468C29.678 116.759 27.0203 120.468 27.4632 118.349C27.9062 116.229 28.7921 114.639 31.8928 110.93C34.9934 107.22 34.9934 107.22 34.9934 107.22L44.2955 93.4421C44.2955 93.4421 44.7385 96.6217 48.7251 97.6815L50.4969 101.921H54.9264C54.9264 101.921 54.9264 101.921 58.4701 101.391V98.2114C58.4701 98.2114 58.4701 98.2114 59.7989 95.0319C60.6848 92.9122 62.0137 91.3224 62.0137 91.3224C62.0137 91.3224 68.2151 89.7326 70.4298 87.6129C73.0876 85.4931 73.5305 86.0231 76.6312 86.0231C76.6312 86.0231 76.6312 89.7326 76.6312 92.3822C76.6312 95.0319 76.1883 97.6815 74.8594 100.331C73.5305 103.511 73.5305 105.63 73.0876 108.28C72.6446 111.46 71.7587 119.939 69.9869 127.887C68.2151 135.836 74.4164 137.956 74.4164 137.956L81.9467 139.546L84.6044 137.956C84.6044 137.956 84.6044 137.956 84.1615 132.657C83.7185 127.358 84.1615 132.657 85.9333 126.828C87.7051 120.998 87.7051 120.998 89.034 115.169C90.3628 109.34 90.3628 111.99 91.6917 107.22C93.0206 101.921 93.0206 103.511 94.7924 99.8012C96.5642 96.0917 97.4501 93.972 99.2219 89.7326C100.994 85.4931 99.2219 86.553 99.6649 84.4333C100.108 82.3136 101.437 78.0741 101.437 78.0741L104.98 70.6551C104.98 70.6551 110.296 61.1164 110.296 56.877C110.296 52.6375 110.739 47.3382 111.625 43.6287C112.068 39.9192 111.625 40.4492 111.625 40.4492L115.168 31.4403L116.94 28.2608C116.497 29.8506 118.712 31.4403 114.725 20.8418ZM86.8192 56.877C86.8192 56.877 87.2621 54.7572 86.3762 60.5865C85.4903 66.4157 85.0474 66.4157 85.0474 66.4157L84.6044 72.2449V76.4843C84.6044 76.4843 85.0474 77.0143 81.9467 77.0143C78.846 77.0143 78.846 77.0143 76.6312 77.0143C74.4164 77.0143 73.9735 77.0143 71.3158 77.0143C68.2151 77.0143 65.1144 77.0143 65.1144 77.0143C60.6848 77.5442 58.4701 80.1938 58.4701 80.1938C58.4701 80.1938 62.0137 75.9544 63.3426 72.7748C64.6714 69.5953 64.6714 69.5953 64.6714 69.5953L67.3292 65.8858L70.8728 63.766C72.6446 60.0565 72.6446 60.0565 72.6446 60.0565C72.6446 60.0565 73.0876 59.5266 75.7453 56.877C78.403 54.7572 78.403 54.7572 78.403 54.7572L84.6044 46.8083L89.9199 43.6287L86.8192 56.877Z" fill="white"/>
<path d="M134.42 3.58583C131.757 7.86209 129.095 16.9492 128.207 21.76C125.101 36.1923 122.438 50.6247 119.775 65.5917C116.668 83.2312 114.45 100.871 112.231 118.51C111.343 127.597 110.455 136.15 109.568 145.237C109.124 148.444 107.793 163.411 114.893 156.462C118 153.255 135.752 133.477 137.083 131.339C138.414 129.201 140.633 124.925 143.74 122.252C146.846 120.114 148.622 116.907 150.397 114.769C152.172 112.631 151.728 108.889 151.728 108.889L149.953 103.544C146.846 108.354 144.184 113.7 140.633 118.51C138.858 121.183 133.089 123.856 132.201 126.528L129.539 131.874C129.539 131.874 127.763 137.219 125.101 137.754C122.882 138.288 122.438 138.288 122.438 138.288C123.325 138.288 123.325 119.579 123.325 117.441C124.657 107.82 129.095 99.8018 131.757 90.7147C134.42 81.0931 134.864 70.4025 137.083 60.7809C139.302 51.1593 142.852 42.0722 145.515 32.4506C148.178 23.3636 149.953 13.742 150.841 4.12036C151.284 -0.690436 136.195 0.37863 134.42 1.98223C135.308 2.51676 134.864 3.0513 134.42 3.58583Z" fill="white"/>
<path d="M174.241 27.4406C174.241 27.4406 170.715 33.3008 168.951 35.4318C167.188 37.5629 159.253 51.4144 159.253 51.4144C159.253 51.4144 153.964 67.397 151.76 78.5848C149.556 89.7726 149.115 94.0346 149.115 96.1656C149.115 98.2967 150.878 103.624 150.878 103.624L155.727 114.812C155.727 114.812 162.339 123.869 171.596 122.803C180.853 122.271 183.058 116.943 183.058 116.943C183.058 116.943 183.498 116.41 185.702 113.746C187.906 111.083 193.196 106.288 193.196 100.428C193.196 94.5674 194.96 90.8381 194.96 90.8381L200.249 81.7813C200.249 81.7813 201.572 70.5935 203.776 70.5935C206.421 70.5935 212.151 64.7332 212.151 64.7332L214.796 57.2747L202.453 67.397C202.453 67.397 201.131 61.004 201.131 58.3402C201.131 55.6764 201.131 48.7507 201.131 48.7507C201.131 48.7507 202.453 47.1524 198.486 47.1524C194.96 47.1524 190.992 45.5541 190.992 45.5541C189.229 45.0214 182.176 65.7987 181.735 66.3315C181.294 67.9298 180.413 70.0608 180.413 72.1918C180.413 77.5193 184.821 81.7813 188.788 80.7158C189.67 84.4451 187.906 88.1744 185.702 91.3709C183.498 94.5674 180.853 96.6984 179.531 100.428C179.09 101.493 179.09 103.091 178.209 104.157C177.768 104.69 177.327 105.222 176.445 105.755C174.241 107.886 172.037 109.484 169.833 111.615C168.07 107.353 165.866 103.091 165.866 98.2967C165.866 95.6329 166.307 92.9691 166.747 90.3054C168.511 80.7158 170.274 71.1263 174.241 62.6022C177.768 55.1437 181.294 48.7507 183.939 40.7594C183.939 40.7594 188.347 34.3663 186.584 33.3008C184.821 32.2353 175.564 27.9733 174.241 27.4406Z" fill="white"/>
<path d="M278.772 20.8928C274.366 10.7869 254.979 7.0636 254.979 7.0636C253.657 15.042 246.166 21.4247 242.201 27.2755C237.354 34.7221 232.507 42.1686 227.219 49.0832C222.813 54.4021 223.694 55.4659 220.61 60.7848C217.526 66.1038 206.069 84.1881 206.069 84.1881L201.222 90.5708L193.732 103.336C193.732 103.336 185.36 117.166 181.394 120.889C177.869 124.612 181.394 120.889 180.954 124.08C180.513 127.271 165.091 145.356 165.091 145.356L165.532 148.547C165.532 148.547 165.532 148.547 168.176 152.27C170.819 155.994 168.176 152.27 171.701 153.866L174.785 153.334C174.785 153.334 174.785 153.334 177.869 151.739C183.157 146.952 185.36 136.314 188.004 129.399C189.766 125.144 191.529 120.889 193.732 117.166C198.138 109.187 203.866 101.741 209.154 94.2941C210.916 96.9536 214.882 102.272 217.526 102.804C217.966 102.804 223.694 102.272 223.254 101.741C222.813 98.5492 223.694 95.8898 225.457 93.7622C227.219 91.6346 229.863 90.5708 232.066 89.5071C235.151 87.9114 238.235 86.3157 241.319 86.8476C240.879 96.9536 226.338 136.846 238.675 139.505L246.166 141.101C246.607 141.101 247.929 140.037 248.81 139.505C247.929 135.782 248.81 132.059 249.691 128.335C251.013 123.548 252.335 118.761 253.657 114.506C254.538 110.783 255.86 107.591 257.182 103.868C258.504 100.677 260.266 97.4855 261.588 94.2941C262.91 90.0389 263.791 85.7838 264.672 81.5287C266.875 74.0822 274.366 66.1038 274.366 57.5935C274.366 53.3383 274.807 48.0194 275.688 44.2961C276.129 40.5729 275.688 41.1048 275.688 41.1048L279.213 32.0626L280.975 28.8712C280.535 29.935 283.179 31.5307 278.772 20.8928ZM251.454 55.4659C251.454 55.4659 251.894 53.3383 251.013 59.1891C250.132 65.04 249.691 65.04 249.691 65.04L249.25 70.8908V75.6778C249.25 75.6778 249.691 76.2097 246.607 76.2097C243.522 76.2097 243.522 76.2097 241.319 76.2097C238.676 76.2097 238.676 76.2097 236.032 76.2097C233.388 76.2097 229.863 76.2097 229.863 76.2097C225.457 76.7416 223.254 79.4011 223.254 79.4011C223.254 79.4011 226.779 75.1459 228.101 71.9546C229.422 68.7632 229.422 68.7632 229.422 68.7632L232.066 65.04L235.591 62.9124C237.354 59.1891 237.354 59.1891 237.354 59.1891C237.354 59.1891 237.794 58.6572 240.438 55.9978C243.082 53.8702 243.082 53.8702 243.082 53.8702L249.25 45.8918L254.538 42.7005L251.454 55.4659Z" fill="white"/>
<path d="M299.292 4.53822C298.853 5.07168 298.414 6.13861 297.975 6.67207C291.83 20.5421 290.075 36.0125 287.441 50.9494C284.808 65.3529 282.614 80.2898 280.419 94.6933C279.102 104.829 279.102 116.565 276.469 126.168C276.03 128.301 275.152 135.236 275.152 135.236C275.152 135.236 275.152 138.437 274.713 146.973C274.274 154.441 274.274 155.508 274.274 156.041C273.836 164.043 288.319 148.039 288.319 148.039C295.342 139.504 302.364 130.969 309.387 122.433C315.092 115.498 317.726 112.831 314.653 104.296C315.531 106.963 301.925 122.967 300.17 124.567C298.853 125.634 297.536 126.701 296.658 128.301C295.342 130.435 294.464 133.103 293.147 135.236C287.88 144.305 287.88 133.103 287.88 128.301C288.319 121.366 288.758 113.898 290.953 107.496C293.586 98.961 297.975 93.0929 298.853 83.4906C300.17 69.6206 304.559 56.284 308.509 43.4809C310.703 36.5459 312.459 30.1444 313.776 22.6759C314.653 18.4082 313.776 7.73899 316.848 4.53822C317.287 4.53822 310.703 1.33745 309.387 0.803988C305.875 0.270526 301.925 0.803987 299.292 4.53822Z" fill="white"/>
<path d="M338.445 27.4406C338.445 27.4406 334.918 33.3008 333.155 35.4318C331.392 37.5629 323.457 51.4144 323.457 51.4144C323.457 51.4144 318.167 67.397 315.963 78.5848C313.759 89.7726 313.319 94.0346 313.319 96.1656C313.319 98.2967 315.082 103.624 315.082 103.624L319.931 114.812C319.931 114.812 326.543 123.869 335.8 122.803C345.057 122.271 347.261 116.943 347.261 116.943C347.261 116.943 347.702 116.41 349.906 113.746C352.11 111.083 357.4 106.288 357.4 100.428C357.4 94.5674 359.163 90.8381 359.163 90.8381L364.453 81.7813C364.453 81.7813 365.776 70.5935 367.98 70.5935C370.184 70.5935 376.355 64.7332 376.355 64.7332L379 57.2747L366.657 67.397C366.657 67.397 365.335 61.004 365.335 58.3402C365.335 55.6764 365.335 48.7507 365.335 48.7507C365.335 48.7507 366.657 47.1524 362.69 47.1524C359.163 47.1524 355.196 45.5541 355.196 45.5541C352.11 49.8162 352.11 51.4144 350.788 53.5454C349.465 55.6764 348.584 59.4057 348.584 62.0695C348.584 64.2005 345.498 71.1263 345.498 71.1263V74.3228C345.498 74.3228 344.176 74.8555 345.939 77.5193C347.702 80.1831 350.347 81.7813 352.11 81.7813C353.874 81.7813 353.874 81.7813 353.874 81.7813C356.078 81.7813 345.057 100.428 344.616 101.493C344.176 103.091 343.735 104.157 342.853 105.222C340.649 108.419 336.241 108.419 335.359 112.148C333.155 107.353 330.51 102.026 330.951 96.6984C330.951 94.0346 331.833 90.8381 332.714 88.1744C334.478 80.7158 335.359 72.7245 338.445 65.266C339.327 62.6022 353.874 33.8336 351.669 33.3008C349.465 32.2353 339.767 27.9733 338.445 27.4406Z" fill="white"/>
</svg>
