<svg width="469" height="158" viewBox="0 0 469 158" fill="none" xmlns="http://www.w3.org/2000/svg">
<path d="M114.725 20.5599C110.296 10.4912 90.8058 6.78174 90.8058 6.78174C90.8058 6.78174 90.3628 10.4912 87.7051 14.2007C85.0474 17.9103 82.8326 20.03 82.8326 20.03C82.8326 20.03 79.7319 22.1497 78.403 24.2694C77.0742 26.3891 76.6312 27.449 73.5305 32.2183C70.4298 37.5176 66.8862 43.3469 62.4567 48.1162C58.0271 52.8856 58.913 54.4754 55.8123 59.7747C52.7116 65.074 41.1948 83.0916 41.1948 83.0916L36.3223 89.4507L28.7921 102.169C28.7921 102.169 20.3759 115.947 16.3893 119.657C12.8457 123.366 16.3893 119.657 15.9464 122.836C15.5034 126.016 0 144.033 0 144.033L0.442955 147.213C0.442955 147.213 0.442955 147.213 3.10069 150.923C5.75842 154.632 3.10069 150.923 6.64433 152.512L9.74501 151.982C9.74501 151.982 9.74501 151.982 12.8457 150.393L16.3893 146.153C16.3893 146.153 16.3893 146.153 16.8323 142.444C17.2752 138.734 19.49 136.614 19.49 136.614L22.5907 131.315C22.5907 131.315 22.5907 131.315 23.0337 128.136C23.4766 124.956 23.0337 128.136 24.3625 123.896C25.6914 119.657 24.3625 123.896 27.0203 120.187C29.678 116.477 27.0203 120.187 27.4632 118.067C27.9062 115.947 28.7921 114.357 31.8928 110.648C34.9934 106.938 34.9934 106.938 34.9934 106.938L44.2955 93.1602C44.2955 93.1602 44.7385 96.3398 48.7251 97.3997L50.4969 101.639H54.9264C54.9264 101.639 54.9264 101.639 58.4701 101.109V97.9296C58.4701 97.9296 58.4701 97.9296 59.7989 94.75C60.6848 92.6303 62.0137 91.0405 62.0137 91.0405C62.0137 91.0405 68.2151 89.4507 70.4298 87.331C73.0876 85.2113 73.5305 85.7412 76.6312 85.7412C76.6312 85.7412 76.6312 89.4507 76.6312 92.1004C76.6312 94.75 76.1883 97.3997 74.8594 100.049C73.5305 103.229 73.5305 105.349 73.0876 107.998C72.6446 111.178 71.7587 119.657 69.9869 127.606C68.2151 135.555 74.4164 137.674 74.4164 137.674L81.9467 139.264L84.6044 137.674C84.6044 137.674 84.6044 137.674 84.1615 132.375C83.7185 127.076 84.1615 132.375 85.9333 126.546C87.7051 120.717 87.7051 120.717 89.034 114.887C90.3628 109.058 90.3628 111.708 91.6917 106.938C93.0206 101.639 93.0206 103.229 94.7924 99.5194C96.5642 95.8099 97.4501 93.6902 99.2219 89.4507C100.994 85.2113 99.2219 86.2711 99.6649 84.1514C100.108 82.0317 101.437 77.7923 101.437 77.7923L104.98 70.3733C104.98 70.3733 110.296 60.8345 110.296 56.5951C110.296 52.3557 110.739 47.0564 111.625 43.3469C112.068 39.6374 111.625 40.1673 111.625 40.1673L115.168 31.1585L116.94 27.9789C116.497 29.5687 118.712 31.1585 114.725 20.5599ZM86.8192 56.5951C86.8192 56.5951 87.2621 54.4754 86.3762 60.3046C85.4903 66.1338 85.0474 66.1338 85.0474 66.1338L84.6044 71.963V76.2025C84.6044 76.2025 85.0474 76.7324 81.9467 76.7324C78.846 76.7324 78.846 76.7324 76.6312 76.7324C74.4164 76.7324 73.9735 76.7324 71.3158 76.7324C68.2151 76.7324 65.1144 76.7324 65.1144 76.7324C60.6848 77.2623 58.4701 79.912 58.4701 79.912C58.4701 79.912 62.0137 75.6726 63.3426 72.493C64.6714 69.3134 64.6714 69.3134 64.6714 69.3134L67.3292 65.6039L70.8728 63.4842C72.6446 59.7747 72.6446 59.7747 72.6446 59.7747C72.6446 59.7747 73.0876 59.2447 75.7453 56.5951C78.403 54.4754 78.403 54.4754 78.403 54.4754L84.6044 46.5264L89.9199 43.3469L86.8192 56.5951Z" fill="black"/>
<path d="M134.42 3.30397C131.757 7.58023 129.095 16.6673 128.207 21.4781C125.101 35.9105 122.438 50.3429 119.775 65.3098C116.668 82.9494 114.45 100.589 112.231 118.229C111.343 127.316 110.455 135.868 109.568 144.955C109.124 148.162 107.793 163.129 114.893 156.18C118 152.973 135.752 133.195 137.083 131.057C138.414 128.919 140.633 124.643 143.74 121.97C146.846 119.832 148.622 116.625 150.397 114.487C152.172 112.349 151.728 108.607 151.728 108.607L149.953 103.262C146.846 108.072 144.184 113.418 140.633 118.229C138.858 120.901 133.089 123.574 132.201 126.247L129.539 131.592C129.539 131.592 127.763 136.937 125.101 137.472C122.882 138.006 122.438 138.006 122.438 138.006C123.325 138.006 123.325 119.298 123.325 117.159C124.657 107.538 129.095 99.5199 131.757 90.4328C134.42 80.8113 134.864 70.1206 137.083 60.499C139.302 50.8774 142.852 41.7903 145.515 32.1688C148.178 23.0817 149.953 13.4601 150.841 3.8385C151.284 -0.972296 136.195 0.0967698 134.42 1.70037C135.308 2.2349 134.864 2.76944 134.42 3.30397Z" fill="black"/>
<path d="M174.42 3.30397C171.757 7.58023 169.095 16.6673 168.207 21.4781C165.101 35.9105 162.438 50.3429 159.775 65.3098C156.668 82.9494 154.45 100.589 152.231 118.229C151.343 127.316 150.455 135.868 149.568 144.955C149.124 148.162 147.793 163.129 154.893 156.18C158 152.973 175.752 133.195 177.083 131.057C178.414 128.919 180.633 124.643 183.74 121.97C186.846 119.832 188.622 116.625 190.397 114.487C192.172 112.349 191.728 108.607 191.728 108.607L189.953 103.262C186.846 108.072 184.184 113.418 180.633 118.229C178.858 120.901 173.089 123.574 172.201 126.247L169.539 131.592C169.539 131.592 167.763 136.937 165.101 137.472C162.882 138.006 162.438 138.006 162.438 138.006C163.325 138.006 163.325 119.298 163.325 117.159C164.657 107.538 169.095 99.5199 171.757 90.4328C174.42 80.8113 174.864 70.1206 177.083 60.499C179.302 50.8774 182.852 41.7903 185.515 32.1688C188.178 23.0817 189.953 13.4601 190.841 3.8385C191.284 -0.972296 176.195 0.0967698 174.42 1.70037C175.308 2.2349 174.864 2.76944 174.42 3.30397Z" fill="black"/>
<path d="M214.241 27.1587C214.241 27.1587 210.715 33.019 208.951 35.15C207.188 37.281 199.253 51.1326 199.253 51.1326C199.253 51.1326 193.964 67.1151 191.76 78.3029C189.556 89.4908 189.115 93.7528 189.115 95.8838C189.115 98.0148 190.878 103.342 190.878 103.342L195.727 114.53C195.727 114.53 202.339 123.587 211.596 122.521C220.853 121.989 223.058 116.661 223.058 116.661C223.058 116.661 223.498 116.128 225.702 113.465C227.906 110.801 233.196 106.006 233.196 100.146C233.196 94.2855 234.96 90.5563 234.96 90.5563L240.249 81.4995C240.249 81.4995 241.572 70.3117 243.776 70.3117C246.421 70.3117 252.151 64.4514 252.151 64.4514L254.796 56.9928L242.453 67.1151C242.453 67.1151 241.131 60.7221 241.131 58.0583C241.131 55.3946 241.131 48.4688 241.131 48.4688C241.131 48.4688 242.453 46.8705 238.486 46.8705C234.96 46.8705 230.992 45.2723 230.992 45.2723C229.229 44.7395 222.176 65.5169 221.735 66.0496C221.294 67.6479 220.413 69.7789 220.413 71.9099C220.413 77.2374 224.821 81.4995 228.788 80.434C229.67 84.1632 227.906 87.8925 225.702 91.089C223.498 94.2855 220.853 96.4165 219.531 100.146C219.09 101.211 219.09 102.81 218.209 103.875C217.768 104.408 217.327 104.941 216.445 105.473C214.241 107.604 212.037 109.203 209.833 111.334C208.07 107.072 205.866 102.81 205.866 98.0148C205.866 95.351 206.307 92.6873 206.747 90.0235C208.511 80.434 210.274 70.8444 214.241 62.3204C217.768 54.8618 221.294 48.4688 223.939 40.4775C223.939 40.4775 228.347 34.0845 226.584 33.019C224.821 31.9535 215.564 27.6914 214.241 27.1587Z" fill="black"/>
<path d="M328.725 20.5599C324.296 10.4912 304.806 6.78174 304.806 6.78174C304.806 6.78174 304.363 10.4912 301.705 14.2007C299.047 17.9103 296.833 20.03 296.833 20.03C296.833 20.03 293.732 22.1497 292.403 24.2694C291.074 26.3891 290.631 27.449 287.531 32.2183C284.43 37.5176 280.886 43.3469 276.457 48.1162C272.027 52.8856 272.913 54.4754 269.812 59.7747C266.712 65.074 255.195 83.0916 255.195 83.0916L250.322 89.4507L242.792 102.169C242.792 102.169 234.376 115.947 230.389 119.657C226.846 123.366 230.389 119.657 229.946 122.836C229.503 126.016 214 144.033 214 144.033L214.443 147.213C214.443 147.213 214.443 147.213 217.101 150.923C219.758 154.632 217.101 150.923 220.644 152.512L223.745 151.982C223.745 151.982 223.745 151.982 226.846 150.393L230.389 146.153C230.389 146.153 230.389 146.153 230.832 142.444C231.275 138.734 233.49 136.614 233.49 136.614L236.591 131.315C236.591 131.315 236.591 131.315 237.034 128.136C237.477 124.956 237.034 128.136 238.363 123.896C239.691 119.657 238.363 123.896 241.02 120.187C243.678 116.477 241.02 120.187 241.463 118.067C241.906 115.947 242.792 114.357 245.893 110.648C248.993 106.938 248.993 106.938 248.993 106.938L258.296 93.1602C258.296 93.1602 258.738 96.3398 262.725 97.3997L264.497 101.639H268.926C268.926 101.639 268.926 101.639 272.47 101.109V97.9296C272.47 97.9296 272.47 97.9296 273.799 94.75C274.685 92.6303 276.014 91.0405 276.014 91.0405C276.014 91.0405 282.215 89.4507 284.43 87.331C287.088 85.2113 287.531 85.7412 290.631 85.7412C290.631 85.7412 290.631 89.4507 290.631 92.1004C290.631 94.75 290.188 97.3997 288.859 100.049C287.531 103.229 287.531 105.349 287.088 107.998C286.645 111.178 285.759 119.657 283.987 127.606C282.215 135.555 288.416 137.674 288.416 137.674L295.947 139.264L298.604 137.674C298.604 137.674 298.604 137.674 298.161 132.375C297.718 127.076 298.161 132.375 299.933 126.546C301.705 120.717 301.705 120.717 303.034 114.887C304.363 109.058 304.363 111.708 305.692 106.938C307.021 101.639 307.021 103.229 308.792 99.5194C310.564 95.8099 311.45 93.6902 313.222 89.4507C314.994 85.2113 313.222 86.2711 313.665 84.1514C314.108 82.0317 315.437 77.7923 315.437 77.7923L318.98 70.3733C318.98 70.3733 324.296 60.8345 324.296 56.5951C324.296 52.3557 324.739 47.0564 325.625 43.3469C326.068 39.6374 325.625 40.1673 325.625 40.1673L329.168 31.1585L330.94 27.9789C330.497 29.5687 332.712 31.1585 328.725 20.5599ZM300.819 56.5951C300.819 56.5951 301.262 54.4754 300.376 60.3046C299.49 66.1338 299.047 66.1338 299.047 66.1338L298.604 71.963V76.2025C298.604 76.2025 299.047 76.7324 295.947 76.7324C292.846 76.7324 292.846 76.7324 290.631 76.7324C288.416 76.7324 287.973 76.7324 285.316 76.7324C282.215 76.7324 279.114 76.7324 279.114 76.7324C274.685 77.2623 272.47 79.912 272.47 79.912C272.47 79.912 276.014 75.6726 277.343 72.493C278.671 69.3134 278.671 69.3134 278.671 69.3134L281.329 65.6039L284.873 63.4842C286.645 59.7747 286.645 59.7747 286.645 59.7747C286.645 59.7747 287.088 59.2447 289.745 56.5951C292.403 54.4754 292.403 54.4754 292.403 54.4754L298.604 46.5264L303.92 43.3469L300.819 56.5951Z" fill="black"/>
<path d="M348.42 3.30397C345.757 7.58023 343.095 16.6673 342.207 21.4781C339.101 35.9105 336.438 50.3429 333.775 65.3098C330.668 82.9494 328.45 100.589 326.231 118.229C325.343 127.316 324.455 135.868 323.568 144.955C323.124 148.162 321.793 163.129 328.893 156.18C332 152.973 349.752 133.195 351.083 131.057C352.414 128.919 354.633 124.643 357.74 121.97C360.846 119.832 362.622 116.625 364.397 114.487C366.172 112.349 365.728 108.607 365.728 108.607L363.953 103.262C360.846 108.072 358.184 113.418 354.633 118.229C352.858 120.901 347.089 123.574 346.201 126.247L343.539 131.592C343.539 131.592 341.763 136.937 339.101 137.472C336.882 138.006 336.438 138.006 336.438 138.006C337.325 138.006 337.325 119.298 337.325 117.159C338.657 107.538 343.095 99.5199 345.757 90.4328C348.42 80.8113 348.864 70.1206 351.083 60.499C353.302 50.8774 356.852 41.7903 359.515 32.1688C362.178 23.0817 363.953 13.4601 364.841 3.8385C365.284 -0.972296 350.195 0.0967698 348.42 1.70037C349.308 2.2349 348.864 2.76944 348.42 3.30397Z" fill="black"/>
<path d="M388.42 3.30397C385.757 7.58023 383.095 16.6673 382.207 21.4781C379.101 35.9105 376.438 50.3429 373.775 65.3098C370.668 82.9494 368.45 100.589 366.231 118.229C365.343 127.316 364.455 135.868 363.568 144.955C363.124 148.162 361.793 163.129 368.893 156.18C372 152.973 389.752 133.195 391.083 131.057C392.414 128.919 394.633 124.643 397.74 121.97C400.846 119.832 402.622 116.625 404.397 114.487C406.172 112.349 405.728 108.607 405.728 108.607L403.953 103.262C400.846 108.072 398.184 113.418 394.633 118.229C392.858 120.901 387.089 123.574 386.201 126.247L383.539 131.592C383.539 131.592 381.763 136.937 379.101 137.472C376.882 138.006 376.438 138.006 376.438 138.006C377.325 138.006 377.325 119.298 377.325 117.159C378.657 107.538 383.095 99.5199 385.757 90.4328C388.42 80.8113 388.864 70.1206 391.083 60.499C393.302 50.8774 396.852 41.7903 399.515 32.1688C402.178 23.0817 403.953 13.4601 404.841 3.8385C405.284 -0.972296 390.195 0.0967698 388.42 1.70037C389.308 2.2349 388.864 2.76944 388.42 3.30397Z" fill="black"/>
<path d="M428.241 27.1587C428.241 27.1587 424.715 33.019 422.951 35.15C421.188 37.281 413.253 51.1326 413.253 51.1326C413.253 51.1326 407.964 67.1151 405.76 78.3029C403.556 89.4908 403.115 93.7528 403.115 95.8838C403.115 98.0148 404.878 103.342 404.878 103.342L409.727 114.53C409.727 114.53 416.339 123.587 425.596 122.521C434.853 121.989 437.058 116.661 437.058 116.661C437.058 116.661 437.498 116.128 439.702 113.465C441.906 110.801 447.196 106.006 447.196 100.146C447.196 94.2855 448.96 90.5563 448.96 90.5563L454.249 81.4995C454.249 81.4995 455.572 70.3117 457.776 70.3117C460.421 70.3117 466.151 64.4514 466.151 64.4514L468.796 56.9928L456.453 67.1151C456.453 67.1151 455.131 60.7221 455.131 58.0583C455.131 55.3946 455.131 48.4688 455.131 48.4688C455.131 48.4688 456.453 46.8705 452.486 46.8705C448.96 46.8705 444.992 45.2723 444.992 45.2723C443.229 44.7395 436.176 65.5169 435.735 66.0496C435.294 67.6479 434.413 69.7789 434.413 71.9099C434.413 77.2374 438.821 81.4995 442.788 80.434C443.67 84.1632 441.906 87.8925 439.702 91.089C437.498 94.2855 434.853 96.4165 433.531 100.146C433.09 101.211 433.09 102.81 432.209 103.875C431.768 104.408 431.327 104.941 430.445 105.473C428.241 107.604 426.037 109.203 423.833 111.334C422.07 107.072 419.866 102.81 419.866 98.0148C419.866 95.351 420.307 92.6873 420.747 90.0235C422.511 80.434 424.274 70.8444 428.241 62.3204C431.768 54.8618 435.294 48.4688 437.939 40.4775C437.939 40.4775 442.347 34.0845 440.584 33.019C438.821 31.9535 429.564 27.6914 428.241 27.1587Z" fill="black"/>
</svg>
