<svg xmlns="http://www.w3.org/2000/svg" width="562.163" height="716.326" viewBox="0 0 562.163 716.326">
  <g id="Group_1" data-name="Group 1" transform="translate(-162.76 -79.484)">
    <path id="Path_1" data-name="Path 1" d="M426.65,637.56H309.719c-77.241,0-139.858-68.478-139.858-152.953l24.883-365.05" transform="translate(19.275 155.75)" fill="none" stroke="#fff" stroke-linejoin="round" stroke-width="5"/>
    <path id="Path_2" data-name="Path 2" d="M218.243,105.953s-58.435,78.048-52.626,81,55.764-16.7,79-13.162,44.275,16.537,58.213,14.155,62.607-16.743,85.843-17.18c0,0,49.173,18.425,65.057,18.79,28.186.653,77.837-13.918,92.939-15.765s44.146,14.5,68.54,16.866,46.472-18.142,70.865-18.142c17.643,0,42.773,30.985,34.854-1.178-1.163-4.718-50.274-65.381-50.274-65.381" transform="translate(0 99.358)" fill="none" stroke="#fff" stroke-linejoin="round" stroke-width="5"/>
    <path id="Path_3" data-name="Path 3" d="M393.827,147.586c-119.344,0-216.1-14.69-216.1-32.8s96.751-32.8,216.1-32.8" transform="translate(51.902 0)" fill="none" stroke="#fff" stroke-linejoin="round" stroke-width="5"/>
    <path id="Path_4" data-name="Path 4" d="M189.732,103.314c0-10.337,64.5-18.718,144.062-18.718" transform="translate(101.645 10.827)" fill="none" stroke="#fff" stroke-linecap="round" stroke-linejoin="round" stroke-width="5"/>
    <path id="Path_5" data-name="Path 5" d="M216.732,106.947c79.561,0,144.062-8.382,144.062-18.713" transform="translate(213.567 25.908)" fill="none" stroke="#fff" stroke-linecap="round" stroke-linejoin="round" stroke-width="5"/>
    <path id="Path_6" data-name="Path 6" d="M404.192,185.959c-125.637,0-227.487-14.685-227.487-32.8,0,0-7.512-51.391,11.392-64.8" transform="translate(41.538 26.426)" fill="none" stroke="#fff" stroke-linejoin="round" stroke-width="5"/>
    <path id="Path_7" data-name="Path 7" d="M219.231,147.586c119.349,0,216.1-14.69,216.1-32.8s-96.751-32.8-216.1-32.8" transform="translate(223.926 0)" fill="none" stroke="#fff" stroke-linejoin="round" stroke-width="5"/>
    <path id="Path_8" data-name="Path 8" d="M178.967,243.572c0-21.312,68.1-38.589,209.937-38.589" transform="translate(57.022 509.862)" fill="none" stroke="#fff" stroke-linejoin="round" stroke-width="5"/>
    <path id="Path_9" data-name="Path 9" d="M219.3,204.983" transform="translate(224.212 509.862)" fill="none" stroke="#fff" stroke-linejoin="round" stroke-width="5"/>
    <path id="Path_10" data-name="Path 10" d="M219.231,207.483" transform="translate(223.926 520.225)" fill="none" stroke="#fff" stroke-linejoin="round" stroke-width="5"/>
    <path id="Path_11" data-name="Path 11" d="M219.861,637.56H336.792c77.241,0,139.858-68.478,139.858-152.953l-24.883-365.05" transform="translate(226.538 155.75)" fill="none" stroke="#fff" stroke-linejoin="round" stroke-width="5"/>
    <path id="Path_12" data-name="Path 12" d="M429.8,243.572c0-21.312-68.108-38.589-209.937-38.589" transform="translate(226.538 509.862)" fill="none" stroke="#fff" stroke-linejoin="round" stroke-width="5"/>
    <path id="Path_13" data-name="Path 13" d="M220.33,204.983" transform="translate(228.482 509.862)" fill="none" stroke="#fff" stroke-linejoin="round" stroke-width="5"/>
    <path id="Path_14" data-name="Path 14" d="M220.4,207.483" transform="translate(228.764 520.225)" fill="none" stroke="#fff" stroke-linejoin="round" stroke-width="5"/>
    <path id="Path_15" data-name="Path 15" d="M219.231,185.959c125.642,0,227.492-14.685,227.492-32.8,0,0,7.512-51.391-11.392-64.8" transform="translate(223.926 26.426)" fill="none" stroke="#fff" stroke-linejoin="round" stroke-width="5"/>
    <path id="Path_16" data-name="Path 16" d="M219.231,159.48c125.642,0,227.492-14.685,227.492-32.8,0,0,14.391-10.45,0-25.726" transform="translate(223.926 78.631)" fill="none" stroke="#fff" stroke-linejoin="round" stroke-width="5"/>
    <path id="Path_17" data-name="Path 17" d="M180.922,100.953s-15.091,13.98,0,25.726c14.293,11.129,101.85,32.8,227.487,32.8" transform="translate(37.321 78.631)" fill="none" stroke="#fff" stroke-linejoin="round" stroke-width="5"/>
    <line id="Line_1" data-name="Line 1" x1="18.866" y2="21.706" transform="translate(202.62 226.049)" fill="none" stroke="#fff" stroke-linecap="round" stroke-linejoin="round" stroke-width="5"/>
    <line id="Line_2" data-name="Line 2" x1="18.866" y2="21.706" transform="translate(212.053 227.258)" fill="none" stroke="#fff" stroke-linecap="round" stroke-linejoin="round" stroke-width="5"/>
    <line id="Line_3" data-name="Line 3" x1="18.866" y2="21.706" transform="translate(224.813 226.049)" fill="none" stroke="#fff" stroke-linecap="round" stroke-linejoin="round" stroke-width="5"/>
    <line id="Line_4" data-name="Line 4" x2="18.866" y2="21.706" transform="translate(672.45 231.194)" fill="none" stroke="#fff" stroke-linecap="round" stroke-linejoin="round" stroke-width="5"/>
    <line id="Line_5" data-name="Line 5" x2="18.866" y2="21.706" transform="translate(663.017 232.404)" fill="none" stroke="#fff" stroke-linecap="round" stroke-linejoin="round" stroke-width="5"/>
    <line id="Line_6" data-name="Line 6" x2="18.866" y2="21.706" transform="translate(650.256 231.194)" fill="none" stroke="#fff" stroke-linecap="round" stroke-linejoin="round" stroke-width="5"/>
    <path id="Path_18" data-name="Path 18" d="M178.443,92.984s-1.286,23.154,0,32.158" transform="translate(52.478 45.598)" fill="none" stroke="#fff" stroke-linecap="round" stroke-linejoin="round" stroke-width="5"/>
    <path id="Path_19" data-name="Path 19" d="M180.05,93.984s-1.286,23.154,0,32.158" transform="translate(59.139 49.743)" fill="none" stroke="#fff" stroke-linecap="round" stroke-linejoin="round" stroke-width="5"/>
    <path id="Path_20" data-name="Path 20" d="M181.657,94.984s-1.286,23.154,0,32.158" transform="translate(65.801 53.888)" fill="none" stroke="#fff" stroke-linecap="round" stroke-linejoin="round" stroke-width="5"/>
    <path id="Path_21" data-name="Path 21" d="M261.085,92.984s1.286,23.154,0,32.158" transform="translate(397.422 45.598)" fill="none" stroke="#fff" stroke-linecap="round" stroke-linejoin="round" stroke-width="5"/>
    <path id="Path_22" data-name="Path 22" d="M259.478,93.984s1.286,23.154,0,32.158" transform="translate(390.76 49.743)" fill="none" stroke="#fff" stroke-linecap="round" stroke-linejoin="round" stroke-width="5"/>
    <path id="Path_23" data-name="Path 23" d="M257.87,94.984s1.286,23.154,0,32.158" transform="translate(384.095 53.888)" fill="none" stroke="#fff" stroke-linecap="round" stroke-linejoin="round" stroke-width="5"/>
    <path id="Path_24" data-name="Path 24" d="M174.315,140.842s30.871,3.092,62.6,7.383,98.614-9.1,108.9-7.383,83.183-2.763,99.473-3.524,89.188,7.512,113.2,4.085,75.265-8.654,85.653-7.61" transform="translate(37.738 214.2)" fill="none" stroke="#fff" stroke-linecap="round" stroke-linejoin="round" stroke-width="5"/>
    <path id="Path_25" data-name="Path 25" d="M174.315,139.991s42.021-13.167,73.747-8.881,115.768,2.49,126.059,4.2,84.9.571,101.192-.19,97.76-1.441,121.767-4.867,36.675,1.641,47.064,2.686" transform="translate(37.738 195.227)" fill="none" stroke="#fff" stroke-linecap="round" stroke-linejoin="round" stroke-width="5"/>
    <g id="bubble3">
      <circle id="Ellipse_1" data-name="Ellipse 1" cx="11.577" cy="11.577" r="11.577" transform="translate(619.384 388.981)" fill="none" stroke="#fff" stroke-linecap="round" stroke-linejoin="round" stroke-width="5"/>
      <circle id="Ellipse_2" data-name="Ellipse 2" cx="11.577" cy="11.577" r="11.577" transform="translate(232.102 544.342)" fill="none" stroke="#fff" stroke-linecap="round" stroke-linejoin="round" stroke-width="5"/>
    </g>
    <g id="bubble4">
      <circle id="Ellipse_3" data-name="Ellipse 3" cx="11.577" cy="11.577" r="11.577" transform="translate(239.19 373.835)" fill="none" stroke="#fff" stroke-linecap="round" stroke-linejoin="round" stroke-width="5"/>
    </g>
    <g id="bubble1">
      <circle id="Ellipse_4" data-name="Ellipse 4" cx="19.285" cy="19.285" r="19.285" transform="translate(250.772 441.556)" fill="none" stroke="#fff" stroke-linecap="round" stroke-linejoin="round" stroke-width="5"/>
    </g>
    <g id="bubble4-2" data-name="bubble4">
      <circle id="Ellipse_5" data-name="Ellipse 5" cx="11.577" cy="11.577" r="11.577" transform="translate(551.369 651.678)" fill="none" stroke="#fff" stroke-linecap="round" stroke-linejoin="round" stroke-width="5"/>
    </g>
    <g id="bubble2">
      <circle id="Ellipse_6" data-name="Ellipse 6" cx="22.309" cy="22.309" r="22.309" transform="translate(606.416 594.504)" fill="none" stroke="#fff" stroke-linecap="round" stroke-linejoin="round" stroke-width="5"/>
    </g>
    <g id="scoby" transform="translate(-89.33 -40.478)">
      <path id="Path_26" data-name="Path 26" d="M319.452,289.911s-47.64,12.987-26.2,47.166,0,73.145,0,73.145c0-16.4-43.668-66.991-43.668-88.869s24.61-49.214,24.61-49.214l-7.435,1.363s-47.635,12.992-26.2,47.172,0,73.145,0,73.145c0-16.408-43.668-67-43.668-88.869s24.615-49.219,24.615-49.219-14.041-24.918-2.166-39.037c0,0-.077-27.27,17.1-29.415,0,0,6.128-18.2,21.734-16.4,0,0,17.252-47.5,57.8-20.921" transform="translate(220.656 288.734)" fill="none" stroke="#fff" stroke-linejoin="round" stroke-width="5"/>
      <path id="Path_27" data-name="Path 27" d="M246.782,203.571s-11.736-2.706-25.567,15.112l-10.841-17.422s13.553-23.838,27.687-21.3" transform="translate(276.542 445.846)" fill="none" stroke="#fff" stroke-linejoin="round" stroke-width="5"/>
      <path id="Path_28" data-name="Path 28" d="M236.523,200.729s-11.736-2.706-25.567,15.112l-10.841-17.427s13.553-23.833,27.687-21.291" transform="translate(234.016 434.066)" fill="none" stroke="#fff" stroke-linejoin="round" stroke-width="5"/>
      <path id="Path_29" data-name="Path 29" d="M221.6,289.911s47.64,12.987,26.2,47.166,0,73.145,0,73.145c0-16.4,43.668-66.991,43.668-88.869s-24.61-49.214-24.61-49.214l7.435,1.363s47.635,12.992,26.2,47.172,0,73.145,0,73.145c0-16.408,43.668-67,43.668-88.869s-24.615-49.219-24.615-49.219,14.041-24.918,2.166-39.037c0,0,.077-27.27-17.1-29.415,0,0-6.128-18.2-21.734-16.4,0,0-22.289-47.5-62.839-20.921" transform="translate(316.593 288.734)" fill="none" stroke="#fff" stroke-linejoin="round" stroke-width="5"/>
      <path id="Path_30" data-name="Path 30" d="M223.6,203.571s11.736-2.706,25.567,15.112l10.841-17.422s-13.553-23.838-27.687-21.3" transform="translate(331.371 445.846)" fill="none" stroke="#fff" stroke-linejoin="round" stroke-width="5"/>
      <path id="Path_31" data-name="Path 31" d="M233.86,200.729s11.736-2.706,25.567,15.112l10.841-17.427s-13.548-23.833-27.687-21.291" transform="translate(373.897 434.066)" fill="none" stroke="#fff" stroke-linejoin="round" stroke-width="5"/>
      <ellipse id="Ellipse_7" data-name="Ellipse 7" cx="10.455" cy="11.628" rx="10.455" ry="11.628" transform="translate(470.537 511.15)" fill="none" stroke="#fff" stroke-linejoin="round" stroke-width="5"/>
      <ellipse id="Ellipse_8" data-name="Ellipse 8" cx="10.455" cy="11.628" rx="10.455" ry="11.628" transform="translate(582.277 505.426)" fill="none" stroke="#fff" stroke-linejoin="round" stroke-width="5"/>
      <path id="Path_32" data-name="Path 32" d="M211.823,162.734s11.839-21.538,28.952-6.992" transform="translate(282.548 325.313)" fill="none" stroke="#fff" stroke-linecap="round" stroke-linejoin="round" stroke-width="5"/>
      <path id="Path_33" data-name="Path 33" d="M251.221,162.734s-11.834-21.538-28.947-6.992" transform="translate(325.87 325.313)" fill="none" stroke="#fff" stroke-linecap="round" stroke-linejoin="round" stroke-width="5"/>
      <path id="Path_34" data-name="Path 34" d="M263.055,164s-56.011,62.294-76.175,39.037c0,0-2.079,42.042,53.1,18.528" transform="translate(179.108 380.463)" fill="none" stroke="#fff" stroke-linejoin="round" stroke-width="5"/>
      <path id="Path_36" data-name="Path 36" d="M186.879,171.589s-2.079,42.042,53.1,18.528" transform="translate(179.108 411.913)" fill="none" stroke="#fff" stroke-linejoin="round" stroke-width="5"/>
      <path id="Path_37" data-name="Path 37" d="M239.121,164S295.132,226.3,315.3,203.039c0,0,2.074,42.042-53.1,18.528" transform="translate(395.705 380.463)" fill="none" stroke="#fff" stroke-linejoin="round" stroke-width="5"/>
      <path id="Path_38" data-name="Path 38" d="M296.709,171.589s2.074,42.042-53.1,18.528" transform="translate(414.293 411.913)" fill="none" stroke="#fff" stroke-linejoin="round" stroke-width="5"/>
      <line id="Line_7" data-name="Line 7" x2="60.954" transform="translate(507.415 519.917)" fill="none" stroke="#fff" stroke-linecap="round" stroke-linejoin="round" stroke-width="5"/>
      <line id="Line_8" data-name="Line 8" y2="17.533" transform="translate(518.148 511.15)" fill="none" stroke="#fff" stroke-linecap="round" stroke-linejoin="round" stroke-width="5"/>
      <line id="Line_9" data-name="Line 9" y2="17.533" transform="translate(556.99 511.15)" fill="none" stroke="#fff" stroke-linecap="round" stroke-linejoin="round" stroke-width="5"/>
      <line id="Line_10" data-name="Line 10" y2="17.533" transform="translate(536.63 511.15)" fill="none" stroke="#fff" stroke-linecap="round" stroke-linejoin="round" stroke-width="5"/>
      <line id="Line_11" data-name="Line 11" x1="10.455" y2="11.488" transform="translate(480.993 470.541)" fill="none" stroke="#fff" stroke-linecap="round" stroke-linejoin="round" stroke-width="5"/>
      <line id="Line_12" data-name="Line 12" x2="10.455" y2="11.488" transform="translate(576.583 470.541)" fill="none" stroke="#fff" stroke-linecap="round" stroke-linejoin="round" stroke-width="5"/>
    </g>
  </g>
</svg>
