<svg xmlns="http://www.w3.org/2000/svg" width="697.279" height="442.937" viewBox="0 0 697.279 442.937">
  <g id="Group_4" data-name="Group 4" transform="translate(-42.251 -177.061)">
    <path id="Path_1" data-name="Path 1" d="M52.3,232.052s45.843-10.178,65.641-.517" transform="translate(24.751 151.185)" fill="#fff" stroke="#000" stroke-linecap="round" stroke-linejoin="round" stroke-width="4.2"/>
    <path id="Path_2" data-name="Path 2" d="M108.982,362.764c9.872-27.647,77.011-38.508,77.011-38.508s-24.684-121.44,61.214-142.173,167.846,75.038,175.744,118.477" transform="translate(202.593 0)" fill="none" stroke="#000" stroke-miterlimit="10" stroke-width="4.2"/>
    <path id="Path_3" data-name="Path 3" d="M134.993,191.506s2.962,22.707,20.733-4.94" transform="translate(284.203 23.16)" fill="none" stroke="#000" stroke-miterlimit="10" stroke-width="4.2"/>
    <path id="Path_4" data-name="Path 4" d="M138.811,191.506s2.962,22.707,20.733-4.94" transform="translate(296.182 23.16)" fill="none" stroke="#000" stroke-miterlimit="10" stroke-width="4.2"/>
    <path id="Path_5" data-name="Path 5" d="M142.629,191.506s2.962,22.707,20.733-4.94" transform="translate(308.16 23.16)" fill="none" stroke="#000" stroke-miterlimit="10" stroke-width="4.2"/>
    <path id="Path_6" data-name="Path 6" d="M146.447,191.506s2.962,22.707,20.733-4.94" transform="translate(320.139 23.16)" fill="none" stroke="#000" stroke-miterlimit="10" stroke-width="4.2"/>
    <path id="Path_7" data-name="Path 7" d="M150.265,191.506s2.962,22.707,20.733-4.94" transform="translate(332.118 23.16)" fill="none" stroke="#000" stroke-miterlimit="10" stroke-width="4.2"/>
    <path id="Path_8" data-name="Path 8" d="M230.466,204.941s13.823,37.022,21.064,0H134.038" transform="translate(281.206 80.812)" fill="#fff" stroke="#000" stroke-miterlimit="10" stroke-width="4.2"/>
    <path id="Path_9" data-name="Path 9" d="M196.554,225.145s-22.955,3.211-26.166,0,0-33.567,0-33.567H132.05" transform="translate(274.969 38.885)" fill="#fff" stroke="#000" stroke-miterlimit="10" stroke-width="4.2"/>
    <path id="Path_10" data-name="Path 10" d="M150.265,191.578h47.722s-12.508,32.252-26.989,0" transform="translate(332.118 38.885)" fill="#fff" stroke="#000" stroke-miterlimit="10" stroke-width="4.2"/>
    <path id="Path_11" data-name="Path 11" d="M132.05,191.578h36.038s-12.508,32.252-26.989,0" transform="translate(274.969 38.885)" fill="#fff" stroke="#000" stroke-miterlimit="10" stroke-width="4.2"/>
    <path id="Path_12" data-name="Path 12" d="M158.029,226.573s51.338,11.738,38.177-34.995" transform="translate(356.478 38.885)" fill="#fff" stroke="#000" stroke-miterlimit="10" stroke-width="4.2"/>
    <path id="Path_13" data-name="Path 13" d="M158.029,226.573s51.338,11.738,38.177-34.995" transform="translate(356.478 38.885)" fill="none" stroke="#000" stroke-miterlimit="10" stroke-width="4.2"/>
    <path id="Path_14" data-name="Path 14" d="M159.125,219.827s-38.135,8.718-28.358-25.992" transform="translate(265.913 45.967)" fill="none" stroke="#000" stroke-miterlimit="10" stroke-width="4.2"/>
    <path id="Path_15" data-name="Path 15" d="M145.822,191.8s-28.851,6.388-20.108,25.487,9.231,18.366,9.231,18.366" transform="translate(249.914 39.594)" fill="none" stroke="#000" stroke-miterlimit="10" stroke-width="4.2"/>
    <path id="Path_16" data-name="Path 16" d="M136.042,194.634s-13.348,2.954-9.3,11.788,4.266,8.494,4.266,8.494" transform="translate(255.916 48.474)" fill="none" stroke="#000" stroke-miterlimit="10" stroke-width="4.2"/>
    <path id="Path_17" data-name="Path 17" d="M171.537,191.557S208,178.487,211.65,205.782s-4.771,22.256-4.771,22.256" transform="translate(398.859 29.005)" fill="none" stroke="#000" stroke-miterlimit="10" stroke-width="4.2"/>
    <path id="Path_18" data-name="Path 18" d="M174.869,192.732s12.2-4.373,13.422,4.762-1.6,7.447-1.6,7.447" transform="translate(409.313 39.225)" fill="none" stroke="#000" stroke-miterlimit="10" stroke-width="4.2"/>
    <path id="Path_19" data-name="Path 19" d="M143.9,208.8s-5.759,12.508-2.3,12.508,5.428-6.252,5.428-6.252,3.951,18.759,7.241,12.177a96.941,96.941,0,0,0,5.428-13.823s.5,12.508,5.433,8.556,7.406-13.165,7.406-13.165" transform="translate(301.458 92.932)" fill="none" stroke="#000" stroke-linecap="round" stroke-linejoin="round" stroke-width="4.2"/>
    <path id="Path_20" data-name="Path 20" d="M129.245,219.706c2.027,5.925,13.6,17.775,13.6,15.139s9.645-12.5,9.645-12.5,2.7,11.941,4.626,12.88,12.156-10.906,12.156-10.906,2.892,25.011,3.662,23.7,8.49-20.406,8.49-20.406l6.363,16.455,14.783-19.744,3.736,15.8,15.044-13.823,9.839,15.139,9.152-18.913,9.752,19.57,9.065-20.406,9.686,21.064L277.1,223l13.116,4.6,8.486-11.846L316.127,227.6l2.64-11.846,10.029,8.556,5.569-8.556" transform="translate(266.168 114.753)" fill="none" stroke="#000" stroke-linecap="round" stroke-linejoin="round" stroke-width="4.2"/>
    <path id="Path_21" data-name="Path 21" d="M415.765,365.8c2.652-41.565-82.245-55.715-82.245-55.715-7.075-38.909-80.474-124.692-157.411-106.118s-54.83,127.344-54.83,127.344S61.145,341.038,52.3,365.8" transform="translate(24.751 69.605)" fill="#fff" stroke="#000" stroke-miterlimit="10" stroke-width="4.2"/>
    <path id="Path_22" data-name="Path 22" d="M75.6,212.4s2.652,20.34,18.569-4.423" transform="translate(97.848 90.35)" fill="none" stroke="#000" stroke-miterlimit="10" stroke-width="4.2"/>
    <path id="Path_23" data-name="Path 23" d="M79.017,212.4s2.652,20.34,18.569-4.423" transform="translate(108.578 90.35)" fill="none" stroke="#000" stroke-miterlimit="10" stroke-width="4.2"/>
    <path id="Path_24" data-name="Path 24" d="M82.436,212.4s2.656,20.34,18.573-4.423" transform="translate(119.305 90.35)" fill="none" stroke="#000" stroke-miterlimit="10" stroke-width="4.2"/>
    <path id="Path_25" data-name="Path 25" d="M85.856,212.4s2.652,20.34,18.573-4.423" transform="translate(130.036 90.35)" fill="none" stroke="#000" stroke-miterlimit="10" stroke-width="4.2"/>
    <path id="Path_26" data-name="Path 26" d="M89.276,212.4s2.652,20.34,18.573-4.423" transform="translate(140.766 90.35)" fill="none" stroke="#000" stroke-miterlimit="10" stroke-width="4.2"/>
    <path id="Path_27" data-name="Path 27" d="M161.112,224.439s12.379,33.162,18.867,0H74.742" transform="translate(95.165 141.987)" fill="#fff" stroke="#000" stroke-miterlimit="10" stroke-width="4.2"/>
    <path id="Path_28" data-name="Path 28" d="M130.737,242.537s-20.559,2.876-23.435,0,0-30.067,0-30.067H72.961" transform="translate(89.578 104.434)" fill="#fff" stroke="#000" stroke-miterlimit="10" stroke-width="4.2"/>
    <path id="Path_29" data-name="Path 29" d="M89.276,212.47H132.02s-11.2,28.888-24.171,0" transform="translate(140.766 104.434)" fill="#fff" stroke="#000" stroke-miterlimit="10" stroke-width="4.2"/>
    <path id="Path_30" data-name="Path 30" d="M72.961,212.47h32.277s-11.2,28.888-24.171,0" transform="translate(89.578 104.434)" fill="#fff" stroke="#000" stroke-miterlimit="10" stroke-width="4.2"/>
    <path id="Path_31" data-name="Path 31" d="M96.23,243.816s45.984,10.513,34.192-31.346" transform="translate(162.584 104.434)" fill="#fff" stroke="#000" stroke-miterlimit="10" stroke-width="4.2"/>
    <path id="Path_32" data-name="Path 32" d="M96.23,243.816s45.984,10.513,34.192-31.346" transform="translate(162.584 104.434)" fill="none" stroke="#000" stroke-miterlimit="10" stroke-width="4.2"/>
    <path id="Path_33" data-name="Path 33" d="M97.208,237.774s-34.155,7.807-25.4-23.282" transform="translate(81.466 110.778)" fill="none" stroke="#000" stroke-miterlimit="10" stroke-width="4.2"/>
    <path id="Path_34" data-name="Path 34" d="M85.3,212.672s-25.843,5.722-18.01,22.831,8.267,16.451,8.267,16.451" transform="translate(67.137 105.068)" fill="none" stroke="#000" stroke-miterlimit="10" stroke-width="4.2"/>
    <path id="Path_35" data-name="Path 35" d="M76.534,215.207s-11.949,2.648-8.329,10.559,3.823,7.609,3.823,7.609" transform="translate(72.512 113.021)" fill="none" stroke="#000" stroke-miterlimit="10" stroke-width="4.2"/>
    <path id="Path_36" data-name="Path 36" d="M108.33,212.451s32.657-11.7,35.926,12.743-4.274,19.93-4.274,19.93" transform="translate(200.548 95.587)" fill="none" stroke="#000" stroke-miterlimit="10" stroke-width="4.2"/>
    <path id="Path_37" data-name="Path 37" d="M111.313,213.505s10.931-3.918,12.024,4.262-1.427,6.67-1.427,6.67" transform="translate(209.907 104.739)" fill="none" stroke="#000" stroke-miterlimit="10" stroke-width="4.2"/>
    <path id="Path_38" data-name="Path 38" d="M83.576,228s-5.159,11.2-2.065,11.2,4.866-5.6,4.866-5.6,3.538,16.8,6.483,10.906a86.526,86.526,0,0,0,4.866-12.384s.443,11.2,4.862,7.667S109.221,228,109.221,228" transform="translate(113.303 153.172)" fill="none" stroke="#000" stroke-linecap="round" stroke-linejoin="round" stroke-width="4.2"/>
    <path id="Path_39" data-name="Path 39" d="M70.449,237.662c1.816,5.308,12.181,15.921,12.181,13.563s8.639-11.2,8.639-11.2,2.42,10.7,4.146,11.539,10.886-9.769,10.886-9.769,2.594,22.4,3.285,21.225,7.6-18.279,7.6-18.279l5.7,14.742,13.24-17.688,3.347,14.15,13.476-12.383,8.809,13.563,8.2-16.939,8.734,17.526,8.118-18.275,8.676,18.867,7.394-17.688,11.746,4.125,7.6-10.609,15.6,10.609,2.363-10.609,8.987,7.663,4.986-7.663" transform="translate(81.696 172.389)" fill="none" stroke="#000" stroke-linecap="round" stroke-linejoin="round" stroke-width="4.2"/>
    <g id="right-hand" transform="translate(44.41 382.72)">
      <path id="Path_40" data-name="Path 40" d="M99.3,299.256s-18.759,29.62-43.775,4.121,0-62.778,0-62.778,25.015-30.2,64.508,4.353" transform="translate(-44.41 -228.377)" fill="#fff" stroke="#000" stroke-linecap="round" stroke-linejoin="round" stroke-width="4.2"/>
      <path id="Path_41" data-name="Path 41" d="M56.265,234.129s24.084-5.739,33.278,0-6.583,12.222-6.583,12.222" transform="translate(-7.216 -218.333)" fill="#fff" stroke="#000" stroke-linecap="round" stroke-linejoin="round" stroke-width="4.2"/>
    </g>
    <path id="Path_42" data-name="Path 42" d="M75.316,245.985s-29.9,69.99,15.321,73.031,50.99-44.122,50.99-44.122" transform="translate(66.548 209.587)" fill="#fff" stroke="#000" stroke-linecap="round" stroke-linejoin="round" stroke-width="4.2"/>
    <path id="Path_43" data-name="Path 43" d="M158.215,246.923s28.425,69.99-14.564,73.035S95.18,275.832,95.18,275.832" transform="translate(159.289 212.53)" fill="#fff" stroke="#000" stroke-linecap="round" stroke-linejoin="round" stroke-width="4.2"/>
    <path id="Path_44" data-name="Path 44" d="M139.845,248.179c.852,10.307,6.086,146.844,6.086,146.844" transform="translate(299.426 216.471)" fill="#fff" stroke="#000" stroke-linecap="round" stroke-linejoin="round" stroke-width="4.2"/>
    <line id="Line_1" data-name="Line 1" x1="1.807" y2="134.111" transform="translate(66.718 468.074)" fill="#fff" stroke="#000" stroke-linecap="round" stroke-linejoin="round" stroke-width="4.2"/>
    <line id="Line_2" data-name="Line 2" y2="97.231" transform="translate(130.891 500.817)" fill="#fff" stroke="#000" stroke-linecap="round" stroke-linejoin="round" stroke-width="4.2"/>
    <line id="Line_3" data-name="Line 3" y2="97.231" transform="translate(343.639 500.817)" fill="#fff" stroke="#000" stroke-linecap="round" stroke-linejoin="round" stroke-width="4.2"/>
    <line id="Line_4" data-name="Line 4" x1="2.481" y2="24.866" transform="translate(667.684 592.835)" fill="#fff" stroke="#000" stroke-linecap="round" stroke-linejoin="round" stroke-width="4.2"/>
    <g id="Arm" transform="translate(463.636 298.331)">
      <path id="Path_45" data-name="Path 45" d="M299.758,278.179s11.908,29.989.786,38.508c-21.685,16.6-145.061-77.437-149.086-80.963" transform="translate(-127.775 -120.938)" fill="#fff" stroke="#000" stroke-linecap="round" stroke-linejoin="round" stroke-width="4.2"/>
      <path id="Path_46" data-name="Path 46" d="M145.734,372.471s93.78,102.084,206.527,130.013,49.683-217.7,49.683-217.7l-7.394-14.6c-11.846-45.86-91.819-62.2-91.819-62.2" transform="translate(-145.734 -207.981)" fill="none" stroke="#000" stroke-miterlimit="10" stroke-width="4.2"/>
    </g>
    <g id="left-hand" transform="translate(397.181 391.497)">
      <path id="Path_47" data-name="Path 47" d="M166.228,233.049s-24.084-5.739-33.278,0,6.583,12.222,6.583,12.222" transform="translate(-128.417 -230.499)" fill="#fff" stroke="#000" stroke-linecap="round" stroke-linejoin="round" stroke-width="4.2"/>
      <path id="Path_48" data-name="Path 48" d="M184.559,301.99s-18.759,29.62-43.771,4.125,0-62.778,0-62.778,25.011-30.2,64.5,4.353" transform="translate(-129.672 -228.564)" fill="#fff" stroke="#000" stroke-linecap="round" stroke-linejoin="round" stroke-width="4.2"/>
    </g>
  </g>
</svg>
