<svg width="698" height="443" viewBox="0 0 698 443" fill="none" xmlns="http://www.w3.org/2000/svg">
<g id="monster-phone" clip-path="url(#clip0)">
<g id="monster">
<path id="Path 2" d="M98.655 310.85L134.133 198.409C152.697 172.713 216.168 162.445 216.168 162.445C216.168 162.445 188.944 28.3376 284.572 5.25605C380.2 -17.8255 471.175 87.7052 479.968 136.065C503.527 137.364 569.571 180.597 569.571 276.895" stroke="black" stroke-width="6" stroke-miterlimit="10"/>
<path id="Path 3" d="M250.245 40.4411C250.245 40.4411 253.543 65.7203 273.327 34.9415" stroke="black" stroke-width="5.5" stroke-miterlimit="10"/>
<path id="Path 4" d="M267.832 40.4411C267.832 40.4411 271.129 65.7203 290.913 34.9415" stroke="black" stroke-width="5.5" stroke-miterlimit="10"/>
<path id="Path 5" d="M285.417 40.4411C285.417 40.4411 288.715 65.7203 308.499 34.9415" stroke="black" stroke-width="5.5" stroke-miterlimit="10"/>
<path id="Path 6" d="M303.004 40.4411C303.004 40.4411 306.301 65.7203 326.085 34.9415" stroke="black" stroke-width="5.5" stroke-miterlimit="10"/>
<path id="Path 7" d="M320.59 40.4411C320.59 40.4411 323.887 65.7203 343.671 34.9415" stroke="black" stroke-width="5.5" stroke-miterlimit="10"/>
<path id="Path 8" d="M354.152 123.924C354.152 123.924 366.359 159.683 374.42 118.467C347.811 127.259 283.57 139.568 239.484 118.467" stroke="black" stroke-width="6" stroke-miterlimit="10"/>
<g id="Path 9">
<path d="M308.5 95.3969C308.5 95.3969 282.945 98.9716 279.37 95.3969C275.795 91.8221 279.37 58.0275 279.37 58.0275" fill="white"/>
<path d="M308.5 95.3969C308.5 95.3969 282.945 98.9716 279.37 95.3969C275.795 91.8221 279.37 58.0275 279.37 58.0275" stroke="black" stroke-width="6" stroke-miterlimit="10"/>
</g>
<g id="right-eye-monster">
<g id="Path 10">
<path d="M320.59 58.0275H373.718C373.718 58.0275 359.793 93.9329 343.671 58.0275" fill="white"/>
<path d="M320.59 58.0275H373.718C373.718 58.0275 359.793 93.9329 343.671 58.0275" stroke="black" stroke-width="6" stroke-miterlimit="10"/>
</g>
</g>
<g id="left-eye-monster">
<g id="Path 11">
<path d="M236.689 58.0275H276.809C276.809 58.0275 262.884 93.9329 246.763 58.0275" fill="white"/>
<path d="M236.689 58.0275H276.809C276.809 58.0275 262.884 93.9329 246.763 58.0275" stroke="black" stroke-width="6" stroke-miterlimit="10"/>
</g>
</g>
<g id="Path 12">
<path d="M356.353 96.9866C356.353 96.9866 413.506 110.054 398.854 58.0275Z" fill="white"/>
<path d="M356.353 96.9866C356.353 96.9866 413.506 110.054 398.854 58.0275" stroke="black" stroke-width="4.2" stroke-miterlimit="10"/>
</g>
<path id="Path 13" d="M356.353 96.9866C356.353 96.9866 413.506 110.054 398.854 58.0275" stroke="black" stroke-width="6" stroke-miterlimit="10"/>
<path id="Path 14" d="M256.749 97.3606C256.749 97.3606 214.294 107.066 225.179 68.4244" stroke="black" stroke-width="6" stroke-miterlimit="10"/>
<path id="Path 15" d="M224.128 59.064C224.128 59.064 192.009 66.1756 201.742 87.4381C211.476 108.701 212.019 107.884 212.019 107.884" stroke="black" stroke-width="6" stroke-miterlimit="10"/>
<path id="Path 16" d="M219.922 72.1049C219.922 72.1049 205.062 75.3935 209.569 85.2282C214.075 95.0629 214.318 94.6844 214.318 94.6844" stroke="black" stroke-width="6" stroke-miterlimit="10"/>
<path id="Path 17" d="M418.573 47.005C418.573 47.005 459.166 32.4545 463.23 62.8414C467.293 93.2282 457.918 87.6184 457.918 87.6184" stroke="black" stroke-width="6" stroke-miterlimit="10"/>
<path id="Path 18" d="M433.92 59.6908C433.92 59.6908 447.502 54.8225 448.863 64.9922C450.223 75.162 447.081 73.2828 447.081 73.2828" stroke="black" stroke-width="6" stroke-miterlimit="10"/>
<path id="Path 19" d="M280.484 144.049C280.484 144.049 274.073 157.974 277.924 157.974C281.774 157.974 283.967 151.014 283.967 151.014C283.967 151.014 288.365 171.898 292.028 164.57C294.433 159.603 296.453 154.458 298.071 149.181C298.071 149.181 298.627 163.106 304.119 158.707C309.611 154.307 312.364 144.05 312.364 144.05" stroke="black" stroke-width="6" stroke-linecap="round" stroke-linejoin="round"/>
<path id="Path 20" d="M223.768 173.804C226.025 180.4 238.909 193.592 238.909 190.658C238.909 187.723 249.646 176.742 249.646 176.742C249.646 176.742 252.652 190.035 254.796 191.081C256.941 192.126 268.329 178.939 268.329 178.939C268.329 178.939 271.549 206.783 272.406 205.324C273.263 203.864 281.858 182.606 281.858 182.606L288.942 200.925L305.399 178.945L309.558 196.535L326.307 181.146L337.26 198L347.449 176.944L358.306 198.731L368.397 176.014L379.181 199.464L388.372 177.471L402.973 182.592L412.421 169.404L431.82 182.592L434.759 169.404L445.924 178.929L452.123 169.404" stroke="black" stroke-width="6" stroke-linecap="round" stroke-linejoin="round"/>
<g id="left-hand-point">
<g id="Path 47">
<path d="M295.648 280.551C295.648 280.551 283.562 255.779 272.128 251.927C260.693 248.076 266.268 266.228 266.268 266.228" fill="white"/>
<path d="M295.648 280.551C295.648 280.551 283.562 255.779 272.128 251.927C260.693 248.076 266.268 266.228 266.268 266.228" stroke="black" stroke-width="5" stroke-linecap="round" stroke-linejoin="round"/>
</g>
<path id="Path 49" d="M441.12 418.281L279.996 344.167L458.243 335.899L546.71 200.505C615.852 336.188 569.509 418.364 531.851 434.424C501.57 447.338 458.746 429.043 441.12 418.281Z" fill="white"/>
<g id="Path 48">
<path d="M278.883 344.167C278.883 344.167 257.999 377.142 230.154 348.759C202.308 320.376 230.154 278.87 230.154 278.87C230.154 278.87 257.998 245.249 301.96 283.716" fill="white"/>
<path d="M457.819 333.116L301.96 283.716C257.998 245.249 230.154 278.87 230.154 278.87C230.154 278.87 202.308 320.376 230.154 348.759C257.999 377.142 278.883 344.167 278.883 344.167L440.006 418.281C457.633 429.043 500.457 447.338 530.738 434.424C568.59 418.281 615.215 335.342 544.522 198.409" stroke="black" stroke-width="6" stroke-linecap="round" stroke-linejoin="round"/>
</g>
<path id="Vector 1" d="M232.937 273.556C214.197 273.741 176.716 276.116 176.716 284.132C176.716 292.147 207.517 291.182 224.031 289.698" stroke="black" stroke-width="6" stroke-linecap="round" stroke-linejoin="round"/>
</g>
</g>
<path id="Vector 2" d="M165.372 247.296C174.129 253.07 179.237 308.559 180.696 335.582C183.797 346.132 190 369.452 190 378.336C190 389.442 130.893 372.229 127.062 367.231C123.231 362.234 116.116 282.832 115.022 257.29C113.927 231.749 154.426 240.077 165.372 247.296Z" fill="black" stroke="black" stroke-width="4.2" stroke-linecap="round" stroke-linejoin="round"/>
<g id="right-hand-phone">
<path id="Path 40" d="M78.8183 343.8C78.8183 343.8 93.7087 391.51 133.283 387.596C142.15 384.094 161.666 372.637 168.791 354.825C177.698 332.559 160.998 325.323 168.791 300.274C175.026 280.235 143.927 285.656 127.598 290.871C70.0688 301.029 78.8183 343.8 78.8183 343.8Z" fill="white" stroke="black" stroke-width="6" stroke-linecap="round" stroke-linejoin="round"/>
<g id="Path 41">
<path d="M92.7972 303.363C92.7972 303.363 104.62 278.464 116.013 274.492C127.406 270.519 122.024 288.729 122.024 288.729" fill="white"/>
<path d="M92.7972 303.363C92.7972 303.363 104.62 278.464 116.013 274.492C127.406 270.519 122.024 288.729 122.024 288.729" stroke="black" stroke-width="6" stroke-linecap="round" stroke-linejoin="round"/>
</g>
</g>
<path id="Vector 3" d="M171 387V445" stroke="black" stroke-width="6" stroke-linecap="round"/>
<g id="face">
<g id="Union">
<path fill-rule="evenodd" clip-rule="evenodd" d="M86.13 205.846C63.2626 202.897 47.1153 181.969 50.0639 159.102C53.0125 136.235 73.9404 120.087 96.8078 123.036C119.675 125.984 135.823 146.912 132.874 169.78C131.914 177.225 129.048 183.958 124.83 189.551L130.386 223.9L91.2691 206.193C89.5717 206.182 87.8564 206.069 86.13 205.846Z" fill="white"/>
<path d="M124.83 189.551L123.233 188.347L122.719 189.028L122.856 189.87L124.83 189.551ZM130.386 223.9L129.561 225.722L132.955 227.258L132.36 223.58L130.386 223.9ZM91.2691 206.193L92.0939 204.371L91.7065 204.195L91.2812 204.193L91.2691 206.193ZM48.0803 158.846C44.9904 182.809 61.9114 204.74 85.8742 207.829L86.3858 203.862C64.6139 201.055 49.2401 181.13 52.0474 159.358L48.0803 158.846ZM97.0636 121.052C73.1007 117.962 51.1701 134.883 48.0803 158.846L52.0474 159.358C54.8548 137.586 74.7802 122.212 96.5521 125.019L97.0636 121.052ZM134.858 170.036C137.947 146.073 121.026 124.142 97.0636 121.052L96.5521 125.019C118.324 127.827 133.698 147.752 130.89 169.524L134.858 170.036ZM126.427 190.755C130.848 184.892 133.852 177.834 134.858 170.036L130.89 169.524C129.976 176.616 127.248 183.023 123.233 188.347L126.427 190.755ZM132.36 223.58L126.804 189.232L122.856 189.87L128.411 224.219L132.36 223.58ZM90.4443 208.015L129.561 225.722L131.21 222.078L92.0939 204.371L90.4443 208.015ZM85.8742 207.829C87.6816 208.063 89.4783 208.182 91.257 208.193L91.2812 204.193C89.6651 204.183 88.0312 204.074 86.3858 203.862L85.8742 207.829Z" fill="black"/>
</g>
<g id="1f62c 1" clip-path="url(#clip1)">
<path id="Vector" d="M71.3797 163.341C71.3797 174.408 80.3516 183.38 91.4187 183.38C102.485 183.38 111.458 174.408 111.458 163.341C111.458 152.275 102.485 143.302 91.4187 143.302C80.3516 143.302 71.3797 152.275 71.3797 163.341Z" fill="#FFCC4D"/>
<path id="Vector_2" d="M98.0984 162.228C96.5613 162.228 95.3152 160.483 95.3152 158.331C95.3152 156.18 96.5613 154.435 98.0984 154.435C99.6355 154.435 100.882 156.18 100.882 158.331C100.882 160.483 99.6355 162.228 98.0984 162.228Z" fill="#664500"/>
<path id="Vector_3" d="M84.7391 162.228C83.2019 162.228 81.9559 160.483 81.9559 158.331C81.9559 156.18 83.2019 154.435 84.7391 154.435C86.2762 154.435 87.5222 156.18 87.5222 158.331C87.5222 160.483 86.2762 162.228 84.7391 162.228Z" fill="#664500"/>
<path id="Vector_4" d="M83.6258 166.681C81.1665 166.681 79.1727 168.675 79.1727 171.134C79.1727 173.593 81.1665 175.587 83.6258 175.587H99.2116C101.671 175.587 103.665 173.593 103.665 171.134C103.665 168.675 101.671 166.681 99.2116 166.681H83.6258Z" fill="white"/>
<path id="Vector_5" d="M83.6258 165.568H99.2116C102.281 165.568 104.778 168.065 104.778 171.134C104.778 174.203 102.281 176.701 99.2116 176.701H83.6258C80.5565 176.701 78.0594 174.203 78.0594 171.134C78.0594 168.065 80.5565 165.568 83.6258 165.568ZM83.6258 167.794C81.9748 167.794 80.6088 169.001 80.3427 170.577H84.1824V167.794H83.6258ZM85.2957 167.794V170.577H88.6355V167.794H85.2957ZM89.7488 167.794V170.577H93.0886V167.794H89.7488ZM94.2019 167.794V170.577H97.5417V167.794H94.2019ZM99.2116 167.794H98.655V170.577H102.495C102.229 169.001 100.863 167.794 99.2116 167.794ZM99.2116 174.474C100.863 174.474 102.229 173.267 102.495 171.691H98.655V174.474H99.2116ZM97.5417 174.474V171.691H94.2019V174.474H97.5417ZM93.0886 174.474V171.691H89.7488V174.474H93.0886ZM88.6355 174.474V171.691H85.2957V174.474H88.6355ZM83.6258 174.474H84.1824V171.691H80.3427C80.6088 173.267 81.9748 174.474 83.6258 174.474Z" fill="#664500"/>
</g>
</g>
<g id="eggplant">
<g id="Union_2">
<path fill-rule="evenodd" clip-rule="evenodd" d="M86.1301 205.846C63.2627 202.897 47.1154 181.969 50.064 159.102C53.0126 136.235 73.9405 120.087 96.8079 123.036C119.675 125.984 135.823 146.912 132.874 169.78C131.914 177.225 129.048 183.958 124.83 189.551L130.386 223.9L91.2692 206.193C89.5718 206.182 87.8565 206.069 86.1301 205.846Z" fill="white"/>
<path d="M124.83 189.551L123.233 188.347L122.719 189.028L122.856 189.87L124.83 189.551ZM130.386 223.9L129.561 225.722L132.955 227.258L132.36 223.58L130.386 223.9ZM91.2692 206.193L92.094 204.371L91.7066 204.195L91.2813 204.193L91.2692 206.193ZM48.0804 158.846C44.9905 182.809 61.9115 204.74 85.8743 207.829L86.3859 203.862C64.614 201.055 49.2402 181.13 52.0475 159.358L48.0804 158.846ZM97.0637 121.052C73.1008 117.962 51.1702 134.883 48.0804 158.846L52.0475 159.358C54.8549 137.586 74.7803 122.212 96.5521 125.019L97.0637 121.052ZM134.858 170.036C137.947 146.073 121.027 124.142 97.0637 121.052L96.5521 125.019C118.324 127.827 133.698 147.752 130.89 169.524L134.858 170.036ZM126.427 190.755C130.849 184.892 133.852 177.834 134.858 170.036L130.89 169.524C129.976 176.616 127.248 183.023 123.233 188.347L126.427 190.755ZM132.36 223.58L126.804 189.232L122.856 189.87L128.411 224.219L132.36 223.58ZM90.4444 208.015L129.561 225.722L131.21 222.078L92.094 204.371L90.4444 208.015ZM85.8743 207.829C87.6817 208.063 89.4785 208.182 91.2571 208.193L91.2813 204.193C89.6652 204.183 88.0313 204.074 86.3859 203.862L85.8743 207.829Z" fill="black"/>
</g>
<path id="Vector_6" d="M102.665 147.642C99.3249 147.642 97.0984 149.869 93.7586 154.322C90.4188 158.775 84.9003 162.327 80.3993 163.228C74.8329 164.341 70.3798 168.794 70.3798 175.474C70.3798 180.926 74.6615 183.267 80.3993 183.267C85.9657 183.267 90.4188 179.927 95.9851 174.361C101.551 168.794 107.118 158.775 107.118 154.322C107.118 149.869 106.005 147.642 102.665 147.642Z" fill="#744EAA"/>
<path id="Vector_7" d="M105.431 143.189C104.042 143.189 104.042 144.578 104.042 145.967C104.042 147.93 102.653 147.223 101.263 147.223C99.876 147.223 97.0984 149.869 97.0984 149.869H101.264C102.654 149.869 101.264 152.779 102.654 152.779C104.043 152.779 104.043 151.456 105.431 151.456C106.82 151.456 107.118 155.435 107.118 155.435C107.118 155.435 108.904 150.812 106.821 148.729C105.431 147.339 108.209 143.189 105.431 143.189Z" fill="#77B255"/>
</g>
<g id="kiwi">
<g id="Union_3">
<path fill-rule="evenodd" clip-rule="evenodd" d="M85.0168 204.733C62.1494 201.784 46.0021 180.856 48.9506 157.989C51.8992 135.121 72.8272 118.974 95.6946 121.923C118.562 124.871 134.709 145.799 131.761 168.666C130.801 176.112 127.935 182.844 123.717 188.438L129.272 222.786L90.1559 205.079C88.4585 205.069 86.7432 204.955 85.0168 204.733Z" fill="white"/>
<path d="M123.717 188.438L122.12 187.234L121.606 187.915L121.742 188.757L123.717 188.438ZM129.272 222.786L128.447 224.608L131.841 226.145L131.247 222.467L129.272 222.786ZM90.1559 205.079L90.9807 203.257L90.5932 203.082L90.168 203.079L90.1559 205.079ZM46.9671 157.733C43.8772 181.696 60.7981 203.626 84.761 206.716L85.2726 202.749C63.5007 199.942 48.1269 180.016 50.9342 158.244L46.9671 157.733ZM95.9504 119.939C71.9875 116.849 50.0569 133.77 46.9671 157.733L50.9342 158.244C53.7416 136.473 73.667 121.099 95.4388 123.906L95.9504 119.939ZM133.744 168.922C136.834 144.959 119.913 123.029 95.9504 119.939L95.4388 123.906C117.211 126.713 132.585 146.639 129.777 168.411L133.744 168.922ZM125.314 189.642C129.735 183.779 132.739 176.721 133.744 168.922L129.777 168.411C128.863 175.503 126.135 181.91 122.12 187.234L125.314 189.642ZM131.247 222.467L125.691 188.119L121.742 188.757L127.298 223.106L131.247 222.467ZM89.3311 206.901L128.447 224.608L130.097 220.964L90.9807 203.257L89.3311 206.901ZM84.761 206.716C86.5684 206.949 88.3651 207.068 90.1438 207.079L90.168 203.079C88.5519 203.07 86.9179 202.961 85.2726 202.749L84.761 206.716Z" fill="black"/>
</g>
<path id="Vector_8" d="M81.466 161.211C79.1894 170.383 83.294 179.297 90.6339 181.117C97.9726 182.938 105.767 176.977 108.043 167.805C110.319 158.631 106.215 149.718 98.8743 147.897C91.5379 146.076 83.7416 152.036 81.466 161.211V161.211Z" fill="#C1694F"/>
<path id="Vector_9" d="M72.3305 158.943C69.6687 169.669 79.3386 178.316 88.9717 180.705C98.6049 183.094 104.936 176.773 107.213 167.599C109.488 158.425 106.848 149.875 97.2156 147.486C87.5835 145.095 75.1716 147.492 72.3305 158.943Z" fill="#C1694F"/>
<path id="Vector_10" d="M83.127 161.623C81.1354 169.65 84.7279 177.448 91.1482 179.041C97.5695 180.637 104.391 175.419 106.383 167.393C108.374 159.366 104.782 151.567 98.36 149.973C91.9408 148.381 85.1198 153.596 83.127 161.623Z" fill="#77B255"/>
<path id="Vector_11" d="M96.0155 150.8C90.7686 150.8 85.8023 155.465 84.2069 161.891C83.3041 165.528 83.5835 169.217 84.994 172.279C86.3645 175.256 88.6456 177.273 91.4154 177.96C92.0945 178.129 92.7936 178.214 93.495 178.214C98.7408 178.214 103.706 173.549 105.301 167.123C107.143 159.707 103.907 152.497 98.0917 151.054C97.4137 150.886 96.7157 150.8 96.0155 150.8ZM96.0155 149.687C96.797 149.687 97.5807 149.781 98.36 149.973C104.782 151.567 108.374 159.366 106.382 167.393C104.632 174.445 99.1549 179.328 93.4961 179.328C92.7146 179.328 91.9275 179.235 91.1482 179.041C84.7291 177.448 81.1354 169.65 83.1271 161.623C84.8782 154.57 90.3567 149.687 96.0155 149.687Z" fill="#A6D388"/>
<g id="Group">
<path id="Vector_12" d="M89.2211 164.918L92.3372 166.377L90.4936 171L93.7833 168.41L94.5593 173.054L96.0934 168.491L99.0447 170.434L97.9247 166.008L101.312 164.114L98.1952 162.65L100.04 158.031L96.748 160.386L95.972 155.741L94.4368 160.539L91.4922 158.597L92.6066 163.02L89.2211 164.918Z" fill="#A6D388"/>
<path id="Vector_13" d="M94.5604 174.167C95.0347 174.167 95.4621 173.865 95.6147 173.408L96.6879 170.215L98.4324 171.364C98.8142 171.618 99.3141 171.61 99.6892 171.34C100.063 171.075 100.236 170.606 100.123 170.16L99.2139 166.562L101.856 165.086C102.221 164.881 102.44 164.492 102.426 164.075C102.411 163.658 102.164 163.285 101.787 163.107L99.6191 162.089L101.075 158.444C101.259 157.984 101.118 157.46 100.728 157.155C100.338 156.851 99.795 156.839 99.3931 157.126L97.5529 158.443L97.0719 155.56C96.9873 155.052 96.5665 154.669 96.0544 154.632C95.5289 154.608 95.0692 154.914 94.9133 155.404L93.8256 158.803L92.1068 157.668C91.7238 157.416 91.2228 157.423 90.8499 157.689C90.4758 157.955 90.3021 158.424 90.4146 158.869L91.3197 162.466L88.6779 163.947C88.315 164.152 88.0956 164.543 88.1101 164.959C88.1257 165.377 88.3717 165.75 88.7491 165.927L90.9144 166.942L89.4594 170.589C89.2724 171.057 89.4238 171.591 89.8268 171.893C90.2309 172.194 90.7864 172.188 91.1816 171.876L92.994 170.449L93.4605 173.239C93.5451 173.742 93.9615 174.125 94.4702 174.165L94.5604 174.167V174.167ZM96.0934 167.378C95.9709 167.378 95.8485 167.398 95.7304 167.439C95.4043 167.553 95.1482 167.81 95.038 168.138L94.9233 168.478L94.881 168.228C94.8165 167.839 94.5515 167.515 94.1852 167.373C93.819 167.232 93.4048 167.294 93.0953 167.535L93.0653 167.559L93.3714 166.789C93.5896 166.243 93.3436 165.619 92.8103 165.37L91.657 164.83L93.151 163.993C93.5896 163.747 93.8089 163.237 93.6865 162.749L93.2723 161.105L93.8245 161.469C94.1151 161.66 94.4791 161.706 94.8075 161.59C95.136 161.475 95.3909 161.212 95.4978 160.879L95.6314 160.461L95.6492 160.569C95.7126 160.948 95.9665 161.267 96.3216 161.414C96.6756 161.562 97.082 161.515 97.3948 161.292L97.5963 161.148L97.161 162.238C96.9428 162.786 97.1877 163.408 97.721 163.659L98.8766 164.201L97.3814 165.036C96.9417 165.282 96.7213 165.793 96.8459 166.281L97.2623 167.927L96.7057 167.561C96.5209 167.439 96.3082 167.378 96.0934 167.378V167.378Z" fill="#A6D388"/>
</g>
<g id="Group_2">
<path id="Vector_14" d="M91.6547 164.362L93.5573 165.266L92.3594 168.092L94.4145 166.658L94.8354 169.503L95.8484 166.571L97.6364 167.77L97.0063 165.057L99.1237 163.906L97.2245 163.001L98.4246 160.174L96.3628 161.606L95.9475 158.76L94.9333 161.696L93.141 160.495L93.7722 163.209L91.6547 164.362Z" fill="#C6E5B3"/>
<path id="Vector_15" d="M94.8353 170.06C95.0703 170.06 95.2829 169.911 95.3608 169.685L96.1379 167.435L97.3246 168.232C97.5139 168.359 97.7633 168.359 97.9514 168.228C98.1396 168.099 98.2297 167.867 98.1774 167.644L97.643 165.344L99.3898 164.396C99.5735 164.296 99.6859 164.101 99.6803 163.891C99.6748 163.682 99.5523 163.494 99.3631 163.404L97.9447 162.728L98.9367 160.391C99.0335 160.163 98.9678 159.898 98.7752 159.742C98.5827 159.585 98.311 159.576 98.1062 159.718L96.7836 160.637L96.4986 158.681C96.4619 158.428 96.2559 158.232 95.9998 158.208C95.746 158.177 95.5055 158.337 95.4209 158.58L94.6416 160.833L93.4493 160.034C93.2589 159.907 93.0107 159.909 92.8237 160.038C92.6355 160.169 92.5453 160.4 92.5977 160.623L93.132 162.924L91.3864 163.875C91.2027 163.975 91.0903 164.17 91.0958 164.379C91.1014 164.588 91.225 164.777 91.4131 164.867L92.8348 165.542L91.844 167.877C91.7471 168.105 91.8128 168.37 92.0065 168.527C92.1991 168.684 92.4719 168.691 92.6756 168.551L93.9937 167.631L94.2832 169.587C94.321 169.841 94.527 170.036 94.7819 170.06H94.8353ZM95.8484 166.015C95.7894 166.015 95.7293 166.025 95.6714 166.043C95.5078 166.098 95.3786 166.226 95.323 166.39L95.0524 167.17L94.9645 166.577C94.9367 166.386 94.8109 166.224 94.635 166.147C94.4579 166.072 94.2553 166.09 94.0961 166.202L93.6274 166.529L94.0705 165.485C94.1863 165.21 94.0661 164.892 93.7967 164.765L92.8804 164.329L94.0382 163.699C94.2576 163.58 94.3711 163.328 94.3143 163.084L94.0026 161.743L94.6238 162.159C94.7674 162.255 94.9489 162.277 95.1114 162.225C95.2751 162.17 95.4042 162.042 95.4599 161.879L95.7282 161.103L95.8139 161.687C95.8418 161.878 95.9664 162.04 96.1423 162.117C96.3205 162.194 96.5231 162.174 96.6812 162.063L97.1588 161.732L96.7123 162.784C96.5966 163.058 96.7157 163.375 96.9851 163.503L97.8991 163.938L96.7402 164.567C96.5209 164.686 96.4073 164.939 96.4641 165.183L96.7747 166.522L96.159 166.109C96.0666 166.047 95.9586 166.015 95.8484 166.015V166.015Z" fill="#C6E5B3"/>
</g>
<path id="Vector_16" d="M99.9843 160.954C99.7294 161.507 99.8207 162.094 100.19 162.265C100.56 162.435 101.065 162.124 101.321 161.57C101.576 161.017 101.485 160.43 101.115 160.26C100.747 160.088 100.24 160.4 99.9843 160.954ZM92.5276 157.685C92.6712 158.277 93.1076 158.68 93.5028 158.586C93.8991 158.489 94.1018 157.93 93.9581 157.338C93.8145 156.745 93.3781 156.342 92.9818 156.439C92.5877 156.534 92.384 157.092 92.5276 157.685V157.685ZM95.4711 168.722C95.6147 169.314 96.05 169.717 96.4452 169.623C96.8427 169.526 97.0453 168.968 96.9017 168.376C96.758 167.785 96.3216 167.379 95.9253 167.476C95.5312 167.572 95.3275 168.13 95.4711 168.722ZM91.8908 171.147C91.6359 171.7 91.7271 172.286 92.0967 172.459C92.4652 172.627 92.9718 172.317 93.2278 171.763C93.4817 171.211 93.3926 170.625 93.0219 170.452C92.6523 170.283 92.1457 170.593 91.8908 171.147V171.147ZM90.6428 162.593C90.9812 162.918 91.3998 163.029 91.5813 162.844C91.7605 162.655 91.6314 162.24 91.2941 161.914C90.9568 161.589 90.5359 161.477 90.3556 161.665C90.1752 161.853 90.3033 162.268 90.6428 162.593ZM96.5142 159.96C96.3127 160.384 96.3383 160.815 96.5732 160.93C96.8093 161.039 97.1633 160.787 97.3637 160.363C97.5641 159.94 97.5373 159.506 97.3013 159.394C97.0675 159.281 96.7135 159.536 96.5142 159.96V159.96ZM100.945 167.858C101.284 168.183 101.701 168.294 101.884 168.109C102.062 167.92 101.934 167.505 101.596 167.18C101.259 166.856 100.839 166.743 100.658 166.93C100.478 167.118 100.606 167.533 100.945 167.858ZM89.1198 166.825C88.7536 167.221 88.6946 167.762 88.9907 168.042C89.2879 168.316 89.8279 168.219 90.1953 167.825C90.5626 167.428 90.6228 166.886 90.3244 166.607C90.0272 166.331 89.4883 166.429 89.1198 166.825Z" fill="#292F33"/>
</g>
<g id="blueberry">
<g id="Union_4">
<path fill-rule="evenodd" clip-rule="evenodd" d="M85.0167 204.733C62.1494 201.784 46.002 180.856 48.9506 157.989C51.8992 135.121 72.8272 118.974 95.6945 121.923C118.562 124.871 134.709 145.799 131.761 168.666C130.801 176.112 127.935 182.844 123.717 188.438L129.272 222.786L90.1558 205.079C88.4584 205.069 86.7431 204.955 85.0167 204.733Z" fill="white"/>
<path d="M123.717 188.438L122.12 187.234L121.606 187.915L121.742 188.757L123.717 188.438ZM129.272 222.786L128.447 224.608L131.841 226.145L131.247 222.467L129.272 222.786ZM90.1558 205.079L90.9806 203.257L90.5932 203.082L90.1679 203.079L90.1558 205.079ZM46.967 157.733C43.8772 181.696 60.7981 203.626 84.761 206.716L85.2725 202.749C63.5006 199.942 48.1268 180.016 50.9342 158.244L46.967 157.733ZM95.9503 119.939C71.9874 116.849 50.0569 133.77 46.967 157.733L50.9342 158.244C53.7415 136.473 73.6669 121.099 95.4388 123.906L95.9503 119.939ZM133.744 168.922C136.834 144.959 119.913 123.029 95.9503 119.939L95.4388 123.906C117.211 126.713 132.584 146.639 129.777 168.411L133.744 168.922ZM125.313 189.642C129.735 183.779 132.739 176.721 133.744 168.922L129.777 168.411C128.863 175.503 126.134 181.91 122.12 187.234L125.313 189.642ZM131.247 222.467L125.691 188.119L121.742 188.757L127.298 223.106L131.247 222.467ZM89.331 206.901L128.447 224.608L130.097 220.964L90.9806 203.257L89.331 206.901ZM84.761 206.716C86.5684 206.949 88.3651 207.068 90.1437 207.079L90.1679 203.079C88.5518 203.07 86.9179 202.961 85.2725 202.749L84.761 206.716Z" fill="black"/>
</g>
<g id="1fad0 1">
<path id="Vector_17" d="M103.566 145.529C103.566 145.529 97.0441 146.215 94.0583 150.049C90.4891 154.632 93.0663 158.913 93.0663 158.913C93.0663 158.913 98.4379 158.439 100.893 155.398C104.458 150.979 103.566 145.529 103.566 145.529Z" fill="#5C913B"/>
<path id="Vector_18" d="M88.1891 145.529C88.1891 145.529 87.1726 150.669 89.309 153.845C91.8618 157.641 95.628 156.673 95.628 156.673C95.628 156.673 96.5331 152.46 94.8587 149.875C92.4251 146.119 88.1891 145.529 88.1891 145.529Z" fill="#77B255"/>
<path id="Vector_19" d="M86.1451 163.968C81.8928 163.968 78.4457 160.964 78.4457 157.258C78.4457 153.553 81.8928 150.549 86.1451 150.549C90.3974 150.549 93.8445 153.553 93.8445 157.258C93.8445 160.964 90.3974 163.968 86.1451 163.968Z" fill="#5864B7"/>
<path id="Vector_20" d="M91.0402 163.337C91.0402 162.389 91.1782 161.511 91.4187 160.695C90.0482 160.24 88.5587 159.981 86.9845 159.981C84.4652 159.981 82.1362 160.594 80.2236 161.72C81.6018 163.505 83.9597 164.454 86.6405 164.454C88.2837 164.454 89.7955 164.086 91.0435 163.398C91.0435 163.377 91.0402 163.358 91.0402 163.337V163.337Z" fill="#334372"/>
<path id="Vector_21" d="M88.3449 162.849C88.3449 163.15 88.3638 163.44 88.3894 163.727C91.5467 163.024 93.8456 160.787 93.8456 157.258C93.8456 156.392 93.702 155.607 93.4459 154.899C90.4045 156.286 88.3449 159.062 88.3449 162.849V162.849Z" fill="#334372"/>
<path id="Vector_22" d="M100.445 171.794C94.9779 171.794 90.5459 167.789 90.5459 162.849C90.5459 157.909 94.9779 153.904 100.445 153.904C105.912 153.904 110.344 157.909 110.344 162.849C110.344 167.789 105.912 171.794 100.445 171.794Z" fill="#5864B7"/>
<path id="Vector_23" d="M100.445 171.235C100.445 165.36 96.2703 161.535 90.7741 160.764C90.6271 161.42 90.5448 162.114 90.5448 162.848C90.5448 168.397 94.9622 171.781 100.416 171.792C100.425 171.607 100.445 171.426 100.445 171.235Z" fill="#334372"/>
<path id="Vector_24" d="M90.6714 169.764C89.8952 168.42 90.3451 166.707 91.6762 165.938C93.0074 165.17 94.7158 165.636 95.4921 166.981C96.2683 168.325 95.8184 170.038 94.4873 170.807C93.1561 171.576 91.4477 171.109 90.6714 169.764Z" fill="#AA8DD8"/>
<path id="Vector_25" d="M87.589 182.976C81.0963 182.976 75.8328 178.22 75.8328 172.353C75.8328 166.486 81.0963 161.73 87.589 161.73C94.0818 161.73 99.3452 166.486 99.3452 172.353C99.3452 178.22 94.0818 182.976 87.589 182.976Z" fill="#5864B7"/>
<path id="Vector_26" d="M93.5974 166.398C92.8158 165.031 91.7059 165.741 90.39 164.877C89.3324 164.183 89.1888 163.125 88.0755 163.125C86.9622 163.125 86.2898 164.051 85.6619 164.283C84.1846 164.827 83.3029 164.029 82.1896 165.142C81.0764 166.256 83.0491 167.259 83.215 168.118C83.4254 169.211 82.0572 170.003 83.0168 170.532C84.3939 171.292 84.7413 169.913 86.9656 170.021C88.6377 170.102 89.299 171.722 90.7541 171.225C92.2447 170.718 90.2253 169.275 91.1181 168.349C92.2102 167.215 94.1262 167.324 93.5974 166.398ZM105.7 157.503C105.204 156.35 104.514 157.014 103.549 156.211C102.774 155.564 102.756 154.713 101.875 154.612C100.993 154.511 100.376 155.184 99.8573 155.31C98.6372 155.607 97.7644 155.221 97.0285 155.676C95.9609 156.338 97.1821 157.137 97.2356 157.833C97.3035 158.718 96.483 159.515 97.1955 160.021C98.2186 160.749 98.8565 159.828 100.609 160.114C101.926 160.33 102.024 161.268 103.222 161.007C104.448 160.739 103.39 159.543 104.18 158.89C105.148 158.093 106.036 158.285 105.7 157.503V157.503ZM85.4181 151.851C84.493 151.522 84.5075 152.271 83.5334 152.397C82.7507 152.498 82.2531 152.055 81.7254 152.508C81.1988 152.96 81.2567 153.671 81.053 154.036C80.5754 154.894 79.8885 155.19 79.7594 155.853C79.5701 156.817 80.6789 156.541 81.1064 156.882C81.6497 157.314 81.672 158.208 82.3399 158.069C83.3018 157.868 83.1114 157.013 84.208 156.161C85.0318 155.519 85.6219 155.963 86.1095 155.137C86.6082 154.291 85.3591 154.264 85.4059 153.462C85.4627 152.481 86.0438 152.074 85.4181 151.851V151.851Z" fill="#334372"/>
<path id="Vector_27" d="M87.3363 169.541C85.0257 169.541 83.1526 168.351 83.1526 166.884C83.1526 165.416 85.0257 164.226 87.3363 164.226C89.6469 164.226 91.52 165.416 91.52 166.884C91.52 168.351 89.6469 169.541 87.3363 169.541Z" fill="#253356"/>
<path id="Vector_28" d="M100.932 159.707C99.199 159.707 97.7944 158.815 97.7944 157.714C97.7944 156.612 99.199 155.72 100.932 155.72C102.664 155.72 104.069 156.612 104.069 157.714C104.069 158.815 102.664 159.707 100.932 159.707Z" fill="#253356"/>
<path id="Vector_29" d="M81.3863 156.476C80.7786 155.963 80.9397 154.772 81.7462 153.816C82.5528 152.859 83.6993 152.499 84.3071 153.012C84.9149 153.524 84.7538 154.715 83.9472 155.672C83.1406 156.628 81.9941 156.988 81.3863 156.476Z" fill="#253356"/>
</g>
</g>
<g id="chess">
<g id="Union_5">
<path fill-rule="evenodd" clip-rule="evenodd" d="M85.0167 204.733C62.1494 201.784 46.002 180.856 48.9506 157.989C51.8992 135.121 72.8272 118.974 95.6945 121.923C118.562 124.871 134.709 145.799 131.761 168.666C130.801 176.112 127.935 182.844 123.717 188.438L129.272 222.786L90.1558 205.079C88.4584 205.069 86.7431 204.955 85.0167 204.733Z" fill="white"/>
<path d="M123.717 188.438L122.12 187.234L121.606 187.915L121.742 188.757L123.717 188.438ZM129.272 222.786L128.447 224.608L131.841 226.145L131.247 222.467L129.272 222.786ZM90.1558 205.079L90.9806 203.257L90.5932 203.082L90.1679 203.079L90.1558 205.079ZM46.967 157.733C43.8772 181.696 60.7981 203.626 84.761 206.716L85.2725 202.749C63.5006 199.942 48.1268 180.016 50.9342 158.244L46.967 157.733ZM95.9503 119.939C71.9874 116.849 50.0569 133.77 46.967 157.733L50.9342 158.244C53.7415 136.473 73.6669 121.099 95.4388 123.906L95.9503 119.939ZM133.744 168.922C136.834 144.959 119.913 123.029 95.9503 119.939L95.4388 123.906C117.211 126.713 132.584 146.639 129.777 168.411L133.744 168.922ZM125.313 189.642C129.735 183.779 132.739 176.721 133.744 168.922L129.777 168.411C128.863 175.503 126.134 181.91 122.12 187.234L125.313 189.642ZM131.247 222.467L125.691 188.119L121.742 188.757L127.298 223.106L131.247 222.467ZM89.331 206.901L128.447 224.608L130.097 220.964L90.9806 203.257L89.331 206.901ZM84.761 206.716C86.5684 206.949 88.3651 207.068 90.1437 207.079L90.1679 203.079C88.5518 203.07 86.9179 202.961 85.2725 202.749L84.761 206.716Z" fill="black"/>
</g>
<g id="265f 1" clip-path="url(#clip2)">
<path id="Vector_30" d="M80.4874 180.767C79.7738 180.037 79.1727 179.007 79.1727 177.592C79.1727 174.087 83.2306 170.074 84.739 166.681C86.223 163.341 87.0814 160.141 84.8314 159.235L84.6422 159.154C83.9987 158.911 83.6258 158.631 83.6258 158.331C83.6258 157.819 84.7056 157.361 86.4023 157.055C84.7056 155.625 83.6258 153.488 83.6258 151.095C83.6258 146.791 87.1148 143.302 91.4187 143.302C95.7226 143.302 99.2116 146.791 99.2116 151.095C99.2116 153.488 98.1318 155.625 96.4351 157.055C98.1318 157.361 99.2116 157.819 99.2116 158.331C99.2116 158.631 98.8387 158.911 98.1941 159.154C98.1318 159.181 98.0761 159.208 98.006 159.235C95.756 160.141 96.6144 163.341 98.0984 166.681C99.6068 170.074 103.665 174.087 103.665 177.592C103.665 179.007 103.064 180.037 102.35 180.767C103.184 181.218 103.665 181.727 103.665 182.267C103.665 182.658 103.405 183.032 102.953 183.38H79.8852C79.4321 183.032 79.1727 182.658 79.1727 182.267C79.1727 181.727 79.6536 181.218 80.4874 180.767Z" fill="#31373D"/>
<path id="Vector_31" d="M86.9645 148.59C87.2706 148.59 87.5656 148.421 87.7126 148.128C87.746 148.064 88.6767 146.364 91.4187 146.364C94.1607 146.364 95.0903 148.064 95.1292 148.137C95.343 148.542 95.8462 148.704 96.2514 148.493C96.6589 148.284 96.8237 147.791 96.6188 147.381C96.5643 147.272 95.2306 144.694 91.4187 144.694C87.6068 144.694 86.2743 147.272 86.2186 147.382C86.0115 147.795 86.1796 148.296 86.5926 148.502C86.7118 148.562 86.8398 148.59 86.9645 148.59ZM86.9656 158.888C87.0491 158.888 87.1337 158.869 87.215 158.829C87.2194 158.828 88.3149 158.331 91.4187 158.331C94.5236 158.331 95.618 158.828 95.6291 158.832C95.9041 158.963 96.237 158.847 96.3694 158.572C96.5019 158.298 96.3928 157.97 96.1201 157.833C95.9943 157.77 94.793 157.218 91.4187 157.218C88.0455 157.218 86.8431 157.77 86.7162 157.834C86.4412 157.972 86.3299 158.306 86.4668 158.581C86.5659 158.776 86.7619 158.888 86.9656 158.888ZM100.325 181.71C100.608 181.71 100.849 181.497 100.878 181.209C100.908 180.904 100.686 180.63 100.379 180.6C100.325 180.594 94.7474 180.04 91.4187 180.04C88.09 180.04 82.5136 180.594 82.4568 180.6C82.1518 180.63 81.9269 180.903 81.9592 181.209C81.9893 181.514 82.2653 181.743 82.5682 181.707C82.6238 181.701 88.1457 181.154 91.4187 181.154C94.6928 181.154 100.214 181.701 100.269 181.707L100.325 181.71Z" fill="#66757F"/>
</g>
</g>
<g id="love">
<g id="Union_6">
<path fill-rule="evenodd" clip-rule="evenodd" d="M85.0167 204.733C62.1494 201.784 46.002 180.856 48.9506 157.989C51.8992 135.121 72.8272 118.974 95.6945 121.923C118.562 124.871 134.709 145.799 131.761 168.666C130.801 176.112 127.935 182.844 123.717 188.438L129.272 222.786L90.1558 205.079C88.4584 205.069 86.7431 204.955 85.0167 204.733Z" fill="white"/>
<path d="M123.717 188.438L122.12 187.234L121.606 187.915L121.742 188.757L123.717 188.438ZM129.272 222.786L128.447 224.608L131.841 226.145L131.247 222.467L129.272 222.786ZM90.1558 205.079L90.9806 203.257L90.5932 203.082L90.1679 203.079L90.1558 205.079ZM46.967 157.733C43.8772 181.696 60.7981 203.626 84.761 206.716L85.2725 202.749C63.5006 199.942 48.1268 180.016 50.9342 158.244L46.967 157.733ZM95.9503 119.939C71.9874 116.849 50.0569 133.77 46.967 157.733L50.9342 158.244C53.7415 136.473 73.6669 121.099 95.4388 123.906L95.9503 119.939ZM133.744 168.922C136.834 144.959 119.913 123.029 95.9503 119.939L95.4388 123.906C117.211 126.713 132.584 146.639 129.777 168.411L133.744 168.922ZM125.313 189.642C129.735 183.779 132.739 176.721 133.744 168.922L129.777 168.411C128.863 175.503 126.134 181.91 122.12 187.234L125.313 189.642ZM131.247 222.467L125.691 188.119L121.742 188.757L127.298 223.106L131.247 222.467ZM89.331 206.901L128.447 224.608L130.097 220.964L90.9806 203.257L89.331 206.901ZM84.761 206.716C86.5684 206.949 88.3651 207.068 90.1437 207.079L90.1679 203.079C88.5518 203.07 86.9179 202.961 85.2725 202.749L84.761 206.716Z" fill="black"/>
</g>
<g id="1f498 1" clip-path="url(#clip3)">
<path id="Vector_32" d="M93.5005 163.835L109.088 148.251C109.523 147.817 107.949 146.242 107.513 146.675L91.9264 162.261C91.4911 162.697 93.2834 164.054 93.5005 163.835V163.835Z" fill="#FFAC33"/>
<path id="Vector_33" d="M73.387 160.545C73.387 155.155 77.7555 150.788 83.1437 150.788C86.4145 150.788 89.3001 152.402 91.0713 154.87C92.8415 152.402 95.7293 150.788 98.999 150.788C104.387 150.788 108.756 155.155 108.756 160.545C108.756 161.308 108.659 162.049 108.493 162.76C107.138 171.179 97.7788 180.058 91.0713 182.497C84.365 180.059 75.0046 171.179 73.6519 162.761C73.4838 162.049 73.387 161.308 73.387 160.545V160.545Z" fill="#DD2E44"/>
<path id="Vector_34" d="M72.8849 173.098C72.8849 173.098 77.9047 168.144 80.021 168.144L86.3188 168.134L87.6492 169.464L87.6391 175.762C87.6391 177.878 82.6851 182.898 82.6851 182.898C81.7299 183.774 80.542 184.238 79.6848 184.238C78.979 184.238 78.4157 183.931 78.0093 183.376C77.6642 182.9 77.5351 182.271 77.5351 181.503C77.5351 180.107 78.154 178.315 79.0825 176.702C77.4694 177.629 75.677 178.249 74.281 178.249C73.5139 178.249 72.8838 178.12 72.4084 177.775C71.8529 177.368 71.5456 176.805 71.5456 176.099C71.5445 175.241 72.0088 174.054 72.8849 173.098V173.098Z" fill="#FFCC4D"/>
<path id="Vector_35" d="M76.3127 180.644C76.5977 180.644 76.8548 180.508 77.073 180.291L91.9787 165.375C92.414 164.94 90.8398 163.366 90.4045 163.8L75.4977 178.717C75.0625 179.152 75.0769 179.87 75.5122 180.305C75.7282 180.521 76.0265 180.644 76.3127 180.644V180.644Z" fill="#FFAC33"/>
<path id="Vector_36" d="M111.278 145.666C111.278 145.377 111.166 145.097 110.96 144.885C110.684 144.605 110.28 144.49 109.897 144.585L102.615 146.394C102.112 146.52 101.802 146.974 101.77 147.495C101.78 148.012 102.145 148.457 102.653 148.565C102.813 148.599 106.701 149.492 107.111 153.075C107.173 153.606 107.601 154.019 108.136 154.058C108.668 154.098 109.154 153.752 109.292 153.236L111.241 145.953C111.266 145.858 111.278 145.763 111.278 145.666Z" fill="#FFCC4D"/>
<path id="Vector_37" d="M86.7608 162.245C86.7953 162.787 87.2228 163.235 87.7805 163.281C91.4187 163.581 91.9553 165.641 92.4752 167.634L92.5954 168.092C92.7591 168.685 93.3714 169.033 93.9637 168.871C94.5559 168.707 94.9022 168.098 94.743 167.503L94.6283 167.073C94.0839 164.985 93.1744 161.492 87.962 161.062C87.3486 161.012 86.8109 161.468 86.7608 162.08C86.7574 162.137 86.7574 162.191 86.7608 162.245V162.245Z" fill="#A0041E"/>
</g>
</g>
<g id="gate">
<g id="Union_7">
<path fill-rule="evenodd" clip-rule="evenodd" d="M85.0168 204.733C62.1494 201.784 46.0021 180.856 48.9506 157.989C51.8992 135.121 72.8272 118.974 95.6946 121.923C118.562 124.871 134.709 145.799 131.761 168.666C130.801 176.112 127.935 182.844 123.717 188.438L129.272 222.786L90.1559 205.079C88.4585 205.069 86.7432 204.955 85.0168 204.733Z" fill="white"/>
<path d="M123.717 188.438L122.12 187.234L121.606 187.915L121.742 188.757L123.717 188.438ZM129.272 222.786L128.447 224.608L131.841 226.145L131.247 222.467L129.272 222.786ZM90.1559 205.079L90.9807 203.257L90.5932 203.082L90.168 203.079L90.1559 205.079ZM46.9671 157.733C43.8772 181.696 60.7981 203.626 84.761 206.716L85.2726 202.749C63.5007 199.942 48.1269 180.016 50.9342 158.244L46.9671 157.733ZM95.9504 119.939C71.9875 116.849 50.0569 133.77 46.9671 157.733L50.9342 158.244C53.7416 136.473 73.667 121.099 95.4388 123.906L95.9504 119.939ZM133.744 168.922C136.834 144.959 119.913 123.029 95.9504 119.939L95.4388 123.906C117.211 126.713 132.585 146.639 129.777 168.411L133.744 168.922ZM125.314 189.642C129.735 183.779 132.739 176.721 133.744 168.922L129.777 168.411C128.863 175.503 126.135 181.91 122.12 187.234L125.314 189.642ZM131.247 222.467L125.691 188.119L121.742 188.757L127.298 223.106L131.247 222.467ZM89.3311 206.901L128.447 224.608L130.097 220.964L90.9807 203.257L89.3311 206.901ZM84.761 206.716C86.5684 206.949 88.3651 207.068 90.1438 207.079L90.168 203.079C88.5519 203.07 86.9179 202.961 85.2726 202.749L84.761 206.716Z" fill="black"/>
</g>
<path id="Vector_38" d="M101.325 155.322C101.325 154.093 102.322 153.095 103.551 153.095C104.781 153.095 105.778 154.093 105.778 155.322V182.04C105.778 183.269 104.781 184.267 103.551 184.267C102.322 184.267 101.325 183.269 101.325 182.04V155.322ZM76.8328 155.322C76.8328 154.093 77.8303 153.095 79.0594 153.095C80.2884 153.095 81.2859 154.093 81.2859 155.322V182.04C81.2859 183.269 80.2884 184.267 79.0594 184.267C77.8303 184.267 76.8328 183.269 76.8328 182.04V155.322Z" fill="#DD2E44"/>
<path id="Vector_39" d="M71.2664 163.115C71.2664 164.344 72.2639 165.341 73.493 165.341H109.118C110.347 165.341 111.344 164.344 111.344 163.115C111.344 161.886 110.347 160.888 109.118 160.888H73.493C72.2639 160.888 71.2664 161.886 71.2664 163.115ZM72.3797 153.095C72.3797 154.324 73.2492 155.009 74.6063 155.322C74.6063 155.322 77.9461 156.435 91.3054 156.435C104.665 156.435 108.005 155.322 108.005 155.322C109.414 155.026 110.231 154.324 110.231 153.095C110.231 151.866 109.234 150.869 108.005 150.869H74.6063C73.3772 150.869 72.3797 151.866 72.3797 153.095Z" fill="#DD2E44"/>
<path id="Vector_40" d="M71.3711 149.755C71.3711 150.984 72.1048 151.756 73.4952 151.982C73.4952 151.982 77.9483 153.095 91.3065 153.095C104.664 153.095 109.116 151.982 109.116 151.982C110.419 151.773 111.223 150.996 111.223 149.766C111.223 148.536 111.458 146.416 110.229 146.416C110.229 146.416 105.777 148.642 91.3065 148.642C76.8362 148.642 72.3831 146.416 72.3831 146.416C71.1529 146.416 71.3711 148.525 71.3711 149.755Z" fill="#292F33"/>
<path id="Vector_41" d="M89.0789 162.001C89.0789 163.23 90.0764 164.228 91.3055 164.228C92.5345 164.228 93.532 163.23 93.532 162.001V155.322C93.532 154.093 92.5345 153.095 91.3055 153.095C90.0764 153.095 89.0789 154.093 89.0789 155.322V162.001Z" fill="#DD2E44"/>
<path id="Vector_42" d="M99.0984 183.154C99.0984 184.383 100.096 185.38 101.325 185.38H105.778C107.007 185.38 108.005 184.383 108.005 183.154C108.005 181.925 107.007 180.927 105.778 180.927H101.325C100.096 180.927 99.0984 181.925 99.0984 183.154ZM74.6063 183.154C74.6063 184.383 75.6038 185.38 76.8329 185.38H81.286C82.515 185.38 83.5125 184.383 83.5125 183.154C83.5125 181.925 82.515 180.927 81.286 180.927H76.8329C75.6038 180.927 74.6063 181.925 74.6063 183.154Z" fill="#292F33"/>
</g>
<g id="owl">
<g id="Union_8">
<path fill-rule="evenodd" clip-rule="evenodd" d="M85.0167 204.733C62.1494 201.784 46.002 180.856 48.9506 157.989C51.8992 135.121 72.8272 118.974 95.6945 121.923C118.562 124.871 134.709 145.799 131.761 168.666C130.801 176.112 127.935 182.844 123.717 188.438L129.272 222.786L90.1558 205.079C88.4584 205.069 86.7431 204.955 85.0167 204.733Z" fill="white"/>
<path d="M123.717 188.438L122.12 187.234L121.606 187.915L121.742 188.757L123.717 188.438ZM129.272 222.786L128.447 224.608L131.841 226.145L131.247 222.467L129.272 222.786ZM90.1558 205.079L90.9806 203.257L90.5932 203.082L90.1679 203.079L90.1558 205.079ZM46.967 157.733C43.8772 181.696 60.7981 203.626 84.761 206.716L85.2725 202.749C63.5006 199.942 48.1268 180.016 50.9342 158.244L46.967 157.733ZM95.9503 119.939C71.9874 116.849 50.0569 133.77 46.967 157.733L50.9342 158.244C53.7415 136.473 73.6669 121.099 95.4388 123.906L95.9503 119.939ZM133.744 168.922C136.834 144.959 119.913 123.029 95.9503 119.939L95.4388 123.906C117.211 126.713 132.584 146.639 129.777 168.411L133.744 168.922ZM125.313 189.642C129.735 183.779 132.739 176.721 133.744 168.922L129.777 168.411C128.863 175.503 126.134 181.91 122.12 187.234L125.313 189.642ZM131.247 222.467L125.691 188.119L121.742 188.757L127.298 223.106L131.247 222.467ZM89.331 206.901L128.447 224.608L130.097 220.964L90.9806 203.257L89.331 206.901ZM84.761 206.716C86.5684 206.949 88.3651 207.068 90.1437 207.079L90.1679 203.079C88.5518 203.07 86.9179 202.961 85.2725 202.749L84.761 206.716Z" fill="black"/>
</g>
<g id="1f989 1">
<path id="Vector_43" d="M103.312 157.775C109.683 167.887 102.245 177.814 102.245 177.814C102.245 177.814 99.0458 177.322 94.5915 172.025C90.1384 166.728 103.312 157.775 103.312 157.775ZM79.5523 157.775C73.181 167.887 80.6188 177.814 80.6188 177.814C80.6188 177.814 83.8184 177.322 88.2726 172.025C92.7268 166.728 79.5523 157.775 79.5523 157.775Z" fill="#662113"/>
<path id="Vector_44" d="M94.5325 180.66C94.6695 180.406 94.8854 180.233 95.1237 180.108C97.3859 177.69 95.7794 174.857 95.7794 174.857C95.7794 174.074 94.3644 172.025 95.7794 172.025L97.1955 173.441C98.6116 174.856 98.6116 179.106 98.6116 179.106H101.444C102.226 179.106 102.86 179.739 102.86 180.522C102.86 181.303 102.226 181.937 101.444 181.937H99.8763L100.19 182.108C100.878 182.48 101.134 183.338 100.762 184.029C100.391 184.715 99.5311 184.973 98.8431 184.601L95.1059 182.58C94.4167 182.208 94.164 181.35 94.5325 180.66ZM88.3026 180.66C88.1657 180.406 87.9497 180.233 87.7126 180.108C85.4493 177.69 87.0569 174.857 87.0569 174.857C87.0569 174.074 88.4719 172.025 87.0569 172.025L85.6408 173.441C84.2236 174.856 84.2236 179.106 84.2236 179.106H81.3914C80.6077 179.106 79.9764 179.739 79.9764 180.522C79.9764 181.303 80.6066 181.937 81.3914 181.937H82.9589L82.6461 182.108C81.9558 182.48 81.702 183.338 82.0727 184.029C82.4468 184.715 83.3029 184.973 83.9943 184.601L87.7304 182.58C88.4195 182.208 88.6734 181.35 88.3026 180.66V180.66Z" fill="#FFAC33"/>
<path id="Vector_45" d="M79.9765 158.1C76.758 151.318 79.9765 146.364 79.9765 146.364C79.9765 146.364 86.4123 147.431 87.4844 149.564C88.8415 152.263 79.9765 158.1 79.9765 158.1Z" fill="#662113"/>
<path id="Vector_46" d="M78.547 159.71C78.547 171.173 82.056 182.638 91.4187 182.638C100.78 182.638 104.292 171.173 104.292 159.71C104.292 148.245 98.5281 147.848 91.4187 147.848C84.3082 147.848 78.547 148.245 78.547 159.71V159.71Z" fill="#662113"/>
<path id="Vector_47" d="M80.6578 165.276C80.6578 176.74 89.3124 181.524 91.4187 181.524C93.525 181.524 102.18 176.74 102.18 165.276C102.18 153.812 80.6578 153.812 80.6578 165.276Z" fill="#C1694F"/>
<path id="Vector_48" d="M102.861 158.1C106.079 151.318 102.861 146.364 102.861 146.364C102.861 146.364 96.424 147.431 95.3508 149.564C93.9948 152.263 102.861 158.1 102.861 158.1V158.1Z" fill="#662113"/>
<path id="Vector_49" d="M94.8376 150.397C99.5434 148.634 102.861 146.364 102.861 146.364C102.861 146.364 105.172 149.95 103.894 155.188C103.398 157.567 101.734 159.858 99.5478 160.378C96.6121 161.076 91.4187 160.323 91.4187 155.966C91.4187 152.965 92.6144 151.232 94.8376 150.397ZM87.9998 150.397C83.294 148.634 79.9776 146.364 79.9776 146.364C79.9776 146.364 77.6664 149.95 78.9444 155.188C79.4398 157.567 81.1031 159.858 83.2884 160.378C86.2253 161.076 91.4187 160.323 91.4187 155.966C91.4187 152.965 90.223 151.232 87.9998 150.397Z" fill="#C1694F"/>
<path id="Vector_50" d="M93.5528 154.899C93.5528 157.256 95.4632 159.166 97.82 159.166C100.177 159.166 102.087 157.256 102.087 154.899C102.087 152.542 100.176 150.632 97.82 150.632C95.4632 150.631 93.5528 152.542 93.5528 154.899ZM80.7502 154.899C80.7502 157.256 82.6606 159.166 85.0174 159.166C87.3742 159.166 89.2845 157.256 89.2845 154.899C89.2845 152.542 87.3742 150.632 85.0174 150.632C82.6606 150.632 80.7502 152.542 80.7502 154.899Z" fill="#FFD983"/>
<path id="Vector_51" d="M95.6859 154.899C95.6859 156.078 96.6411 157.033 97.82 157.033C98.999 157.033 99.9542 156.078 99.9542 154.899C99.9542 153.721 98.999 152.765 97.82 152.765C96.6411 152.765 95.6859 153.72 95.6859 154.899ZM82.8832 154.899C82.8832 156.078 83.8384 157.033 85.0174 157.033C86.1963 157.033 87.1515 156.078 87.1515 154.899C87.1515 153.721 86.1963 152.765 85.0174 152.765C83.8384 152.765 82.8832 153.72 82.8832 154.899Z" fill="#292F33"/>
<path id="Vector_52" d="M88.218 159.7C88.218 162.352 91.4187 163.434 91.4187 163.434C91.4187 163.434 94.6194 162.35 94.6194 159.7C94.6194 157.049 91.4187 155.966 91.4187 155.966C91.4187 155.966 88.218 157.048 88.218 159.7Z" fill="#FFCC4D"/>
<path id="Vector_53" d="M88.218 159.7C88.218 162.352 91.4187 163.434 91.4187 163.434C91.4187 163.434 94.6194 162.35 94.6194 159.7C93.2857 161.033 91.4187 161.301 91.4187 161.301C91.4187 161.301 89.5518 161.033 88.218 159.7Z" fill="#F4900C"/>
</g>
</g>
<g id="accordion">
<g id="Union_9">
<path fill-rule="evenodd" clip-rule="evenodd" d="M85.0168 204.733C62.1494 201.784 46.0021 180.856 48.9506 157.989C51.8992 135.121 72.8272 118.974 95.6946 121.923C118.562 124.871 134.709 145.799 131.761 168.666C130.801 176.112 127.935 182.844 123.717 188.438L129.272 222.786L90.1559 205.079C88.4585 205.069 86.7432 204.955 85.0168 204.733Z" fill="white"/>
<path d="M123.717 188.438L122.12 187.234L121.606 187.915L121.742 188.757L123.717 188.438ZM129.272 222.786L128.447 224.608L131.841 226.145L131.247 222.467L129.272 222.786ZM90.1559 205.079L90.9807 203.257L90.5932 203.082L90.168 203.079L90.1559 205.079ZM46.9671 157.733C43.8772 181.696 60.7981 203.626 84.761 206.716L85.2726 202.749C63.5007 199.942 48.1269 180.016 50.9342 158.244L46.9671 157.733ZM95.9504 119.939C71.9875 116.849 50.0569 133.77 46.9671 157.733L50.9342 158.244C53.7416 136.473 73.667 121.099 95.4388 123.906L95.9504 119.939ZM133.744 168.922C136.834 144.959 119.913 123.029 95.9504 119.939L95.4388 123.906C117.211 126.713 132.585 146.639 129.777 168.411L133.744 168.922ZM125.314 189.642C129.735 183.779 132.739 176.721 133.744 168.922L129.777 168.411C128.863 175.503 126.135 181.91 122.12 187.234L125.314 189.642ZM131.247 222.467L125.691 188.119L121.742 188.757L127.298 223.106L131.247 222.467ZM89.3311 206.901L128.447 224.608L130.097 220.964L90.9807 203.257L89.3311 206.901ZM84.761 206.716C86.5684 206.949 88.3651 207.068 90.1438 207.079L90.168 203.079C88.5519 203.07 86.9179 202.961 85.2726 202.749L84.761 206.716Z" fill="black"/>
</g>
<g id="Group 1">
<path id="Vector_54" d="M89.881 179.008C90.52 179.065 91.1045 178.607 91.1813 177.973L94.3964 150.247C94.4732 149.612 93.6439 148.985 92.5517 148.888C91.4596 148.792 90.5356 149.262 90.4989 149.9L88.7833 177.759C88.7488 178.398 89.242 178.95 89.881 179.008ZM85.2064 178.846C85.8454 178.833 86.3764 178.316 86.3842 177.675L86.598 149.765C86.6058 149.126 85.7174 148.591 84.6241 148.613C83.5309 148.635 82.6648 149.201 82.6971 149.84L83.9851 177.722C84.0174 178.361 84.5663 178.858 85.2064 178.846V178.846ZM80.5473 179.186C81.1819 179.105 81.6528 178.534 81.5927 177.897L78.8084 150.124C78.7483 149.487 77.8076 149.052 76.7233 149.191C75.6389 149.329 74.8374 149.986 74.9387 150.617L79.2125 178.2C79.3138 178.832 79.9128 179.267 80.5473 179.186V179.186Z" fill="#FFE8B6"/>
<path id="Vector_55" d="M87.5442 178.863C88.1844 178.886 88.7421 178.397 88.7844 177.759L90.5 149.9C90.5423 149.262 89.6828 148.681 88.5885 148.645C87.4941 148.607 86.5979 149.127 86.5968 149.766L86.3831 177.677C86.382 178.316 86.9041 178.841 87.5442 178.863ZM82.8718 178.954C83.5097 178.907 84.0107 178.361 83.984 177.722L82.6959 149.84C82.6692 149.201 81.7541 148.716 80.6642 148.796C79.5743 148.875 78.7393 149.488 78.8061 150.124L81.5904 177.897C81.6594 178.534 82.235 179 82.8718 178.954Z" fill="#D99E82"/>
<path id="Vector_56" d="M76.19 179.934L77.34 179.757C78.6047 179.562 79.4797 178.369 79.2849 177.104L75.394 151.816C75.1991 150.552 74.0057 149.677 72.741 149.871L71.591 150.048C70.3263 150.243 69.4513 151.437 69.6461 152.701L73.537 177.989C73.7318 179.254 74.9264 180.129 76.19 179.934V179.934Z" fill="#BE1931"/>
<path id="Vector_57" d="M72.299 155.81C71.6565 155.81 71.1357 155.289 71.1357 154.646C71.1357 154.004 71.6565 153.483 72.299 153.483C72.9415 153.483 73.4624 154.004 73.4624 154.646C73.4624 155.289 72.9415 155.81 72.299 155.81Z" fill="#F5F8FA"/>
<path id="Vector_58" d="M72.299 155.81C71.6565 155.81 71.1357 155.289 71.1357 154.646C71.1357 154.004 71.6565 153.483 72.299 153.483C72.9415 153.483 73.4624 154.004 73.4624 154.646C73.4624 155.289 72.9415 155.81 72.299 155.81Z" fill="#F5F8FA"/>
<path id="Vector_59" d="M72.83 159.259C72.1875 159.259 71.6667 158.738 71.6667 158.095C71.6667 157.453 72.1875 156.932 72.83 156.932C73.4726 156.932 73.9934 157.453 73.9934 158.095C73.9934 158.738 73.4726 159.259 72.83 159.259Z" fill="#F5F8FA"/>
<path id="Vector_60" d="M73.3611 162.706C72.7186 162.706 72.1977 162.185 72.1977 161.543C72.1977 160.9 72.7186 160.38 73.3611 160.38C74.0037 160.38 74.5245 160.9 74.5245 161.543C74.5245 162.185 74.0037 162.706 73.3611 162.706Z" fill="#F5F8FA"/>
<path id="Vector_61" d="M73.891 166.155C73.2485 166.155 72.7277 165.634 72.7277 164.992C72.7277 164.349 73.2485 163.829 73.891 163.829C74.5335 163.829 75.0544 164.349 75.0544 164.992C75.0544 165.634 74.5335 166.155 73.891 166.155Z" fill="#F5F8FA"/>
<path id="Vector_62" d="M74.4221 169.603C73.7796 169.603 73.2587 169.082 73.2587 168.44C73.2587 167.797 73.7796 167.276 74.4221 167.276C75.0646 167.276 75.5854 167.797 75.5854 168.44C75.5854 169.082 75.0646 169.603 74.4221 169.603Z" fill="#F5F8FA"/>
<path id="Vector_63" d="M74.952 173.052C74.3094 173.052 73.7886 172.531 73.7886 171.889C73.7886 171.246 74.3094 170.725 74.952 170.725C75.5945 170.725 76.1154 171.246 76.1154 171.889C76.1154 172.531 75.5945 173.052 74.952 173.052Z" fill="#F5F8FA"/>
<path id="Vector_64" d="M75.483 176.5C74.8405 176.5 74.3196 175.979 74.3196 175.336C74.3196 174.694 74.8405 174.173 75.483 174.173C76.1255 174.173 76.6464 174.694 76.6464 175.336C76.6464 175.979 76.1255 176.5 75.483 176.5Z" fill="#F5F8FA"/>
<path id="Vector_65" d="M93.1006 179.321L103.5 180.508C104.771 180.652 105.929 179.732 106.075 178.46L108.976 153.04C109.121 151.768 108.2 150.61 106.929 150.465L96.5295 149.278C95.2581 149.133 94.1003 150.054 93.9545 151.325L91.0532 176.746C90.9085 178.017 91.8292 179.176 93.1006 179.321Z" fill="#BE1931"/>
<path id="Vector_66" d="M100.56 153.249L106.729 153.954C107.257 154.014 107.738 153.631 107.798 153.103L107.843 152.711C107.903 152.184 107.52 151.703 106.992 151.643L100.823 150.939C100.296 150.879 99.8147 151.262 99.7546 151.79L99.7101 152.181C99.65 152.708 100.032 153.189 100.56 153.249V153.249ZM100.164 156.716L106.333 157.421C106.861 157.481 107.342 157.098 107.402 156.57L107.446 156.178C107.508 155.65 107.125 155.17 106.597 155.109L100.428 154.406C99.9005 154.346 99.4195 154.729 99.3594 155.256L99.3149 155.648C99.2536 156.175 99.6366 156.656 100.164 156.716V156.716ZM99.7691 160.183L105.938 160.886C106.465 160.946 106.946 160.563 107.007 160.036L107.051 159.644C107.111 159.116 106.728 158.635 106.201 158.575L100.032 157.871C99.5041 157.811 99.0232 158.194 98.9631 158.722L98.9185 159.114C98.8584 159.642 99.2403 160.122 99.7691 160.183V160.183ZM99.3728 163.649L105.541 164.353C106.069 164.413 106.55 164.03 106.61 163.502L106.655 163.111C106.715 162.583 106.332 162.102 105.804 162.042L99.6355 161.338C99.1078 161.278 98.6269 161.661 98.5667 162.189L98.5222 162.581C98.4621 163.107 98.8451 163.589 99.3728 163.649ZM98.9775 167.115L105.146 167.819C105.674 167.879 106.155 167.496 106.215 166.968L106.26 166.576C106.32 166.048 105.937 165.568 105.409 165.507L99.2403 164.804C98.7126 164.744 98.2316 165.127 98.1715 165.654L98.127 166.046C98.0669 166.574 98.4498 167.055 98.9775 167.115ZM98.5823 170.582L104.751 171.285C105.279 171.345 105.76 170.962 105.82 170.435L105.864 170.043C105.924 169.515 105.541 169.034 105.014 168.974L98.8451 168.271C98.3174 168.21 97.8364 168.593 97.7763 169.121L97.7318 169.513C97.6717 170.041 98.0535 170.522 98.5823 170.582ZM98.186 174.048L104.355 174.752C104.882 174.812 105.363 174.429 105.423 173.901L105.468 173.51C105.528 172.982 105.145 172.501 104.617 172.441L98.4487 171.737C97.921 171.677 97.4401 172.06 97.38 172.588L97.3355 172.98C97.2753 173.507 97.6583 173.988 98.186 174.048V174.048ZM97.7908 177.515L103.959 178.219C104.487 178.279 104.968 177.896 105.028 177.368L105.073 176.976C105.133 176.449 104.75 175.968 104.222 175.908L98.0535 175.204C97.5258 175.144 97.0449 175.527 96.9848 176.055L96.9402 176.446C96.8801 176.973 97.2631 177.455 97.7908 177.515V177.515Z" fill="#F5F8FA"/>
<path id="Vector_67" d="M103.13 154.713L100.428 154.405C99.9005 154.345 99.5175 153.864 99.5777 153.336L99.6222 152.944C99.6823 152.416 100.163 152.033 100.691 152.094L103.394 152.402C103.922 152.462 104.305 152.943 104.245 153.471L104.2 153.863C104.14 154.391 103.659 154.773 103.13 154.713V154.713ZM102.735 158.18L100.033 157.871C99.5053 157.811 99.1223 157.33 99.1825 156.803L99.227 156.411C99.2871 155.883 99.768 155.5 100.296 155.56L102.999 155.869C103.526 155.929 103.909 156.41 103.849 156.937L103.805 157.329C103.744 157.858 103.263 158.24 102.735 158.18V158.18ZM101.943 165.113L99.2415 164.805C98.7138 164.745 98.3308 164.264 98.3909 163.736L98.4354 163.343C98.4956 162.816 98.9765 162.433 99.5042 162.493L102.206 162.801C102.734 162.861 103.117 163.342 103.057 163.87L103.012 164.262C102.953 164.79 102.471 165.173 101.943 165.113V165.113ZM101.548 168.579L98.8462 168.271C98.3186 168.21 97.9356 167.73 97.9957 167.202L98.0402 166.81C98.1003 166.282 98.5813 165.899 99.109 165.959L101.811 166.268C102.339 166.328 102.722 166.809 102.661 167.337L102.617 167.728C102.557 168.257 102.076 168.639 101.548 168.579V168.579ZM101.153 172.046L98.451 171.737C97.9233 171.677 97.5404 171.196 97.6005 170.669L97.645 170.277C97.7051 169.749 98.1861 169.366 98.7138 169.426L101.416 169.735C101.943 169.795 102.326 170.276 102.266 170.803L102.222 171.195C102.162 171.724 101.681 172.106 101.153 172.046V172.046ZM100.361 178.979L97.6595 178.671C97.1318 178.611 96.7488 178.13 96.8089 177.602L96.8535 177.21C96.9136 176.682 97.3945 176.3 97.9222 176.36L100.624 176.668C101.152 176.728 101.535 177.209 101.475 177.737L101.43 178.129C101.37 178.656 100.889 179.039 100.361 178.979V178.979Z" fill="#292F33"/>
<path id="Vector_68" d="M98.097 151.797L95.5899 151.511C95.3261 151.481 95.1346 151.241 95.1646 150.977L95.1869 150.781C95.217 150.517 95.4574 150.326 95.7213 150.356L98.2284 150.643C98.4923 150.673 98.6838 150.913 98.6537 151.177L98.6314 151.373C98.6014 151.637 98.3609 151.827 98.097 151.797ZM97.8332 154.109L95.3261 153.822C95.0622 153.792 94.8707 153.552 94.9008 153.288L94.9231 153.092C94.9531 152.828 95.1936 152.637 95.4574 152.667L97.9646 152.953C98.2284 152.983 98.4199 153.225 98.3898 153.488L98.3676 153.684C98.3375 153.947 98.097 154.139 97.8332 154.109V154.109ZM97.5694 156.42L95.0622 156.134C94.7984 156.104 94.6069 155.863 94.637 155.599L94.6592 155.403C94.6893 155.139 94.9297 154.948 95.1936 154.978L97.7007 155.264C97.9646 155.294 98.1561 155.535 98.126 155.799L98.1037 155.994C98.0737 156.258 97.8332 156.45 97.5694 156.42ZM97.3055 158.731L94.7984 158.445C94.5345 158.415 94.343 158.174 94.3731 157.91L94.3954 157.714C94.4254 157.451 94.6659 157.259 94.9297 157.289L97.4369 157.575C97.7007 157.605 97.8922 157.846 97.8621 158.11L97.8399 158.306C97.8098 158.569 97.5693 158.761 97.3055 158.731V158.731ZM97.0417 161.042L94.5345 160.756C94.2707 160.726 94.0792 160.485 94.1093 160.222L94.1315 160.026C94.1616 159.762 94.402 159.57 94.6659 159.6L97.173 159.886C97.4369 159.917 97.6284 160.157 97.5983 160.421L97.576 160.617C97.546 160.881 97.3055 161.072 97.0417 161.042ZM96.7778 163.353L94.2707 163.067C94.0068 163.037 93.8153 162.797 93.8454 162.533L93.8677 162.337C93.8977 162.073 94.1382 161.881 94.402 161.912L96.9092 162.198C97.173 162.228 97.3645 162.468 97.3344 162.732L97.3122 162.928C97.2821 163.192 97.0417 163.383 96.7778 163.353V163.353ZM96.514 165.663L94.0068 165.377C93.743 165.347 93.5515 165.107 93.5816 164.843L93.6038 164.647C93.6339 164.383 93.8743 164.191 94.1382 164.222L96.6453 164.508C96.9092 164.538 97.1007 164.778 97.0706 165.042L97.0483 165.238C97.0194 165.503 96.7778 165.694 96.514 165.663ZM96.2501 167.974L93.743 167.688C93.4791 167.658 93.2876 167.418 93.3177 167.154L93.34 166.958C93.37 166.694 93.6105 166.503 93.8743 166.533L96.3815 166.819C96.6453 166.849 96.8368 167.089 96.8067 167.353L96.7845 167.549C96.7555 167.814 96.5151 168.004 96.2501 167.974V167.974ZM95.9874 170.286L93.4802 169.999C93.2164 169.969 93.0249 169.729 93.055 169.465L93.0772 169.269C93.1073 169.005 93.3478 168.814 93.6116 168.844L96.1187 169.13C96.3826 169.16 96.5741 169.401 96.544 169.664L96.5217 169.86C96.4917 170.124 96.2512 170.316 95.9874 170.286V170.286ZM95.7235 172.597L93.2164 172.311C92.9525 172.281 92.7611 172.04 92.7911 171.776L92.8134 171.58C92.8434 171.316 93.0839 171.125 93.3478 171.155L95.8549 171.441C96.1187 171.471 96.3102 171.712 96.2802 171.976L96.2579 172.171C96.2278 172.435 95.9874 172.627 95.7235 172.597ZM95.4597 174.908L92.9525 174.622C92.6887 174.592 92.4972 174.351 92.5273 174.087L92.5495 173.891C92.5796 173.628 92.8201 173.436 93.0839 173.466L95.591 173.752C95.8549 173.782 96.0464 174.023 96.0163 174.287L95.994 174.483C95.964 174.746 95.7235 174.938 95.4597 174.908V174.908ZM95.1958 177.219L92.6887 176.933C92.4248 176.903 92.2334 176.662 92.2634 176.399L92.2857 176.203C92.3157 175.939 92.5562 175.747 92.8201 175.777L95.3272 176.063C95.591 176.094 95.7825 176.334 95.7525 176.598L95.7302 176.794C95.7001 177.058 95.4597 177.249 95.1958 177.219Z" fill="#A0041E"/>
</g>
</g>
<g id="onsen">
<g id="Union_10">
<path fill-rule="evenodd" clip-rule="evenodd" d="M85.0167 204.733C62.1494 201.784 46.002 180.856 48.9506 157.989C51.8992 135.121 72.8272 118.974 95.6945 121.923C118.562 124.871 134.709 145.799 131.761 168.666C130.801 176.112 127.935 182.844 123.717 188.438L129.272 222.786L90.1558 205.079C88.4584 205.069 86.7431 204.955 85.0167 204.733Z" fill="white"/>
<path d="M123.717 188.438L122.12 187.234L121.606 187.915L121.742 188.757L123.717 188.438ZM129.272 222.786L128.447 224.608L131.841 226.145L131.247 222.467L129.272 222.786ZM90.1558 205.079L90.9806 203.257L90.5932 203.082L90.1679 203.079L90.1558 205.079ZM46.967 157.733C43.8772 181.696 60.7981 203.626 84.761 206.716L85.2725 202.749C63.5006 199.942 48.1268 180.016 50.9342 158.244L46.967 157.733ZM95.9503 119.939C71.9874 116.849 50.0569 133.77 46.967 157.733L50.9342 158.244C53.7415 136.473 73.6669 121.099 95.4388 123.906L95.9503 119.939ZM133.744 168.922C136.834 144.959 119.913 123.029 95.9503 119.939L95.4388 123.906C117.211 126.713 132.584 146.639 129.777 168.411L133.744 168.922ZM125.313 189.642C129.735 183.779 132.739 176.721 133.744 168.922L129.777 168.411C128.863 175.503 126.134 181.91 122.12 187.234L125.313 189.642ZM131.247 222.467L125.691 188.119L121.742 188.757L127.298 223.106L131.247 222.467ZM89.331 206.901L128.447 224.608L130.097 220.964L90.9806 203.257L89.331 206.901ZM84.761 206.716C86.5684 206.949 88.3651 207.068 90.1437 207.079L90.1679 203.079C88.5518 203.07 86.9179 202.961 85.2725 202.749L84.761 206.716Z" fill="black"/>
</g>
<g id="2668 1" clip-path="url(#clip4)">
<path id="Vector_69" d="M76.3472 165.091C75.3141 166.249 74.7196 167.539 74.7196 168.908C74.7196 173.826 82.1952 177.814 91.4187 177.814C100.641 177.814 108.118 173.826 108.118 168.908C108.118 167.539 107.522 166.249 106.49 165.091C108.898 166.772 110.344 168.862 110.344 171.134C110.344 176.668 101.871 181.154 91.4187 181.154C80.9662 181.154 72.493 176.668 72.493 171.134C72.493 168.862 73.9392 166.772 76.3472 165.091Z" fill="#DD2E44"/>
<path id="Vector_70" d="M101.437 171.691C102.049 171.691 102.639 171.352 102.932 170.768C103.344 169.943 103.01 168.94 102.185 168.527C102.052 168.458 98.655 166.643 98.655 162.228C98.655 159.86 99.9508 158.182 101.322 156.407C102.747 154.562 104.221 152.654 104.221 149.982C104.221 144.895 101.616 142.232 101.506 142.121C100.854 141.469 99.7972 141.469 99.1448 142.121C98.4958 142.769 98.4925 143.818 99.1326 144.47C99.2272 144.571 100.882 146.377 100.882 149.982C100.882 151.514 99.8607 152.836 98.6795 154.366C97.1799 156.305 95.3152 158.72 95.3152 162.228C95.3152 168.751 100.472 171.405 100.691 171.515C100.931 171.634 101.185 171.691 101.437 171.691Z" fill="#DD2E44"/>
<path id="Vector_71" d="M93.6441 171.691C94.2564 171.691 94.8465 171.352 95.1393 170.768C95.5512 169.943 95.2172 168.94 94.3923 168.527C94.2587 168.458 90.8621 166.643 90.8621 162.228C90.8621 159.86 92.1579 158.182 93.5295 156.407C94.9545 154.562 96.4284 152.654 96.4284 149.982C96.4284 144.895 93.8234 142.232 93.7132 142.121C93.0608 141.469 92.0043 141.469 91.3519 142.121C90.7029 142.769 90.6995 143.818 91.3397 144.47C91.4343 144.571 93.0886 146.377 93.0886 149.982C93.0886 151.514 92.0677 152.836 90.8866 154.366C89.3881 156.305 87.5222 158.72 87.5222 162.228C87.5222 168.751 92.6789 171.405 92.8982 171.515C93.1376 171.634 93.3925 171.691 93.6441 171.691V171.691Z" fill="#DD2E44"/>
<path id="Vector_72" d="M85.8512 171.691C86.4635 171.691 87.0536 171.352 87.3464 170.768C87.7583 169.943 87.4243 168.94 86.5993 168.527C86.4658 168.458 83.0691 166.643 83.0691 162.228C83.0691 159.86 84.365 158.182 85.7366 156.407C87.1616 154.562 88.6355 152.654 88.6355 149.982C88.6355 144.895 86.0305 142.232 85.9191 142.121C85.2668 141.469 84.2103 141.469 83.5579 142.121C82.91 142.769 82.9055 143.818 83.5456 144.47C83.6414 144.571 85.2957 146.377 85.2957 149.982C85.2957 151.514 84.2748 152.836 83.0925 154.366C81.5952 156.305 79.7293 158.72 79.7293 162.228C79.7293 168.751 84.886 171.405 85.1053 171.515C85.3458 171.634 85.5996 171.691 85.8512 171.691V171.691Z" fill="#DD2E44"/>
</g>
</g>
</g>
<defs>
<clipPath id="clip0">
<rect width="697.279" height="442.937" fill="white" transform="matrix(-1 0 0 1 697.279 0)"/>
</clipPath>
<clipPath id="clip1">
<rect width="40.0779" height="40.0779" fill="white" transform="matrix(-1 0 0 1 111.458 143.302)"/>
</clipPath>
<clipPath id="clip2">
<rect width="40.0779" height="40.0779" fill="white" transform="matrix(-1 0 0 1 111.458 143.302)"/>
</clipPath>
<clipPath id="clip3">
<rect width="40.0779" height="40.0779" fill="white" transform="matrix(-1 0 0 1 111.458 144.415)"/>
</clipPath>
<clipPath id="clip4">
<rect width="40.0779" height="40.0779" fill="white" transform="matrix(-1 0 0 1 111.458 141.076)"/>
</clipPath>
</defs>
</svg>
