<svg xmlns="http://www.w3.org/2000/svg" width="488.353" height="644.125" viewBox="0 0 488.353 644.125">
  <g id="Group_1" data-name="Group 1" transform="translate(-80.142 -71.421)">
    <path id="Path_135" data-name="Path 135" d="M131.091,152.964s-23.98,64.209,0,91.283,49.289,25.668,67.94,7.719,4-16.615,18.651-17.948,42.628-13.532,50.622-1.437,9.324,36.544,27.975,23.653,15.985-102.058,10.657-128.746L301.609,100.8s-31.974,39.878-57.284,29.928l-25.313-9.947s-10.657,32.18-49.289,32.18-41.3-24.359-41.3-24.359Z" transform="translate(95.453 68.268)" fill="#fff" stroke="#000" stroke-linecap="round" stroke-linejoin="round" stroke-width="3.5"/>
    <path id="Path_136" data-name="Path 136" d="M164.591,255.054s-7.733,13.65,27.036-15.811c3.418-2.892,7.243-6.2,11.527-9.982,47.886-42.259,0-93.626,0-93.626L188.571,169.84" transform="translate(203.162 154.662)" fill="#fff" stroke="#000" stroke-linecap="round" stroke-linejoin="round" stroke-width="3.5"/>
    <path id="Path_137" data-name="Path 137" d="M301.148,180.9c29.7,68.971-83.689,84.228-83.689,84.228s-125.2,17.176-92.223-105.977" transform="translate(93.641 213.001)" fill="#fff" stroke="#000" stroke-linecap="round" stroke-linejoin="round" stroke-width="3.5"/>
    <path id="Path_138" data-name="Path 138" d="M153.665,114.941s20.444,33.888,0,42.708" transform="translate(177.879 103.333)" fill="#fff" stroke="#000" stroke-linecap="round" stroke-linejoin="round" stroke-width="3.5"/>
    <path id="Path_139" data-name="Path 139" d="M288.718,118.384l-159.86,83.838-33.3-19.271,25.061-12.775L264.3,96.932l33.7-17.18Z" transform="translate(33.741 16.051)" fill="#fff" stroke="#000" stroke-linecap="round" stroke-linejoin="round" stroke-width="3.5"/>
    <path id="Path_140" data-name="Path 140" d="M265,95.71s-71.3-50.528-121.924.094S103.8,183.634,103.8,183.634" transform="translate(51.499 0)" fill="#fff" stroke="#000" stroke-linecap="round" stroke-linejoin="round" stroke-width="3.5"/>
    <path id="Path_141" data-name="Path 141" d="M146.483,135.281s31-100.43,93.2-32.012c0,0,27.951,14.652-2.687,50.622" transform="translate(160.065 15.182)" fill="#fff" stroke="#000" stroke-linecap="round" stroke-linejoin="round" stroke-width="3.5"/>
    <path id="Path_142" data-name="Path 142" d="M120.964,122.9s-51.736,61.676,6.9,49.661" transform="translate(44.486 123.082)" fill="#fff" stroke="#000" stroke-linecap="round" stroke-linejoin="round" stroke-width="3.5"/>
    <line id="Line_1" data-name="Line 1" x1="29.064" y2="4.43" transform="translate(247.858 236.863)" fill="#fff" stroke="#000" stroke-linecap="round" stroke-linejoin="round" stroke-width="3.5"/>
    <path id="Path_143" data-name="Path 143" d="M161.548,114.941c4.531,4.121,31.177,5.454,31.177,5.454" transform="translate(197.431 103.333)" fill="#fff" stroke="#000" stroke-linecap="round" stroke-linejoin="round" stroke-width="3.5"/>
    <g id="moustache-left">
      <path id="Path_144" data-name="Path 144" d="M209.356,133.033s-32.949,16.765-68.428,31.031,36.492,25.093,51.795,15.018S209.356,133.033,209.356,133.033Z" transform="translate(122.187 148.208)" fill="#fff" stroke="#000" stroke-linecap="round" stroke-linejoin="round" stroke-width="3.5"/>
    </g>
    <path id="Path_146" data-name="Path 146" d="M153.665,136.444s53.239,20.19,63.9,97.134,38.632,47.97,38.632,47.97V241.523H322.8s18.648,57.384-13.323,82.509-99.911,38.455-117.229-34.821S199.007,166.191,153.665,136.444Z" transform="translate(177.879 156.669)" fill="#fff" stroke="#000" stroke-linecap="round" stroke-linejoin="round" stroke-width="3.5"/>
    <path id="Path_147" data-name="Path 147" d="M124.194,183.042v45.353l63.5,25.817v47.625l59.052,22.647L180.134,206.7S136.842,206.054,124.194,183.042Z" transform="translate(104.779 272.249)" fill="#fff" stroke="#000" stroke-linecap="round" stroke-linejoin="round" stroke-width="3.5"/>
    <path id="Path_148" data-name="Path 148" d="M154.262,285.27c-2.06-3.644,23.667-99.389,23.667-99.389l26.5,47.966-21.192,17.987,4.716,33.436-26.388,12.909" transform="translate(179.067 279.291)" fill="#fff" stroke="#000" stroke-linecap="round" stroke-linejoin="round" stroke-width="3.5"/>
    <path id="Path_149" data-name="Path 149" d="M253.4,434.5c101.944,33.975,148.135-88.207,148.135-88.207l70.8,11.047C449.024,520.473,253.4,528.965,253.4,528.965s-73.443-21.1-99.187-49.122c0,0-51.617-42.44-70.109-122.043s88.245-210,88.245-210" transform="translate(0 184.831)" fill="#fff" stroke="#000" stroke-linecap="round" stroke-linejoin="round" stroke-width="3.5"/>
    <line id="Line_2" data-name="Line 2" y1="14.262" x2="59.052" transform="translate(292.471 478.051)" fill="#fff" stroke="#000" stroke-linecap="round" stroke-linejoin="round" stroke-width="3.5"/>
    <line id="Line_3" data-name="Line 3" y1="12.497" x2="43.427" transform="translate(304.249 500.643)" fill="#fff" stroke="#000" stroke-linecap="round" stroke-linejoin="round" stroke-width="3.5"/>
    <line id="Line_4" data-name="Line 4" y1="5.324" x2="27.528" transform="translate(313.101 523.469)" fill="#fff" stroke="#000" stroke-linecap="round" stroke-linejoin="round" stroke-width="3.5"/>
    <line id="Line_5" data-name="Line 5" x2="14.089" transform="translate(321.997 544.523)" fill="#fff" stroke="#000" stroke-linecap="round" stroke-linejoin="round" stroke-width="3.5"/>
    <path id="Path_150" data-name="Path 150" d="M186.746,259.837c-13.814-17.987-28.466-46.982-13.814-65.953s27.916,19.668,27.916,19.668,13.681,15.634,16.187,15.71S259.667,201.085,292.9,184s29.235,49.522-37.376,85.492" transform="translate(210.563 267.808)" fill="#fff" stroke="#000" stroke-linecap="round" stroke-linejoin="round" stroke-width="3.5"/>
    <path id="Path_151" data-name="Path 151" d="M108.417,114.941s-13.8,18,6.3,35.705c0,0-25.866,33.961,3.449,27.345" transform="translate(54.182 103.333)" fill="#fff" stroke="#000" stroke-linecap="round" stroke-linejoin="round" stroke-width="3.5"/>
    <path id="Path_152" data-name="Path 152" d="M122.656,131.006s-36.815,22.233,6.9,59.156c0,0,10.211,20.771,24.307,38.813,8.677,11.1,18.829,21.171,28.981,24.725" transform="translate(65.013 143.181)" fill="#fff" stroke="#000" stroke-linecap="round" stroke-linejoin="round" stroke-width="3.5"/>
    <path id="Path_153" data-name="Path 153" d="M142.439,167.292c17.753,1.761,40.856,2.381,40.856,2.381" transform="translate(150.034 233.184)" fill="#fff" stroke="#000" stroke-linecap="round" stroke-linejoin="round" stroke-width="3.5"/>
    <path id="Path_154" data-name="Path 154" d="M181.264,144.8c7.852,4.1,30.5,74.671,30.5,74.671" transform="translate(246.334 177.405)" fill="#fff" stroke="#000" stroke-linecap="round" stroke-linejoin="round" stroke-width="3.5"/>
    <g id="bubble">
      <circle id="Ellipse_13" data-name="Ellipse 13" cx="58.446" cy="58.446" r="58.446" transform="translate(449.854 214.644)" fill="#fff" stroke="#000" stroke-linecap="round" stroke-linejoin="round" stroke-width="3.5"/>
    </g>
    <g id="moustach-right">
      <path id="Path_155" data-name="Path 155" d="M154.178,133.033s24.436,8.816,50.747,16.316-27.063,13.194-38.413,7.893S154.178,133.033,154.178,133.033Z" transform="translate(179.151 148.208)" fill="#fff" stroke="#000" stroke-linecap="round" stroke-linejoin="round" stroke-width="3.5"/>
    </g>
  </g>
</svg>
