<svg xmlns="http://www.w3.org/2000/svg" width="562.163" height="716.326" viewBox="0 0 562.163 716.326">
  <g id="scoby" transform="translate(-162.76 -79.484)">
    <path id="Path_1" data-name="Path 1" d="M426.65,637.56H309.719c-77.241,0-139.858-68.478-139.858-152.953l24.883-365.05" transform="translate(19.275 155.75)" fill="none" stroke="#fff" stroke-linejoin="round" stroke-width="5"/>
    <path id="Path_2" data-name="Path 2" d="M218.243,105.953s-58.435,78.048-52.626,81,55.764-16.7,79-13.162,44.275,16.537,58.213,14.155,62.607-16.743,85.843-17.18c0,0,49.173,18.425,65.057,18.79,28.186.653,77.837-13.918,92.939-15.765s44.146,14.5,68.54,16.866,46.472-18.142,70.865-18.142c17.643,0,42.773,30.985,34.854-1.178-1.163-4.718-50.274-65.381-50.274-65.381" transform="translate(0 99.358)" fill="none" stroke="#fff" stroke-linejoin="round" stroke-width="5"/>
    <path id="Path_3" data-name="Path 3" d="M393.827,147.586c-119.344,0-216.1-14.69-216.1-32.8s96.751-32.8,216.1-32.8" transform="translate(51.902 0)" fill="none" stroke="#fff" stroke-linejoin="round" stroke-width="5"/>
    <path id="Path_4" data-name="Path 4" d="M189.732,103.314c0-10.337,64.5-18.718,144.062-18.718" transform="translate(101.645 10.827)" fill="none" stroke="#fff" stroke-linecap="round" stroke-linejoin="round" stroke-width="5"/>
    <path id="Path_5" data-name="Path 5" d="M216.732,106.947c79.561,0,144.062-8.382,144.062-18.713" transform="translate(213.567 25.908)" fill="none" stroke="#fff" stroke-linecap="round" stroke-linejoin="round" stroke-width="5"/>
    <path id="Path_6" data-name="Path 6" d="M404.192,185.959c-125.637,0-227.487-14.685-227.487-32.8,0,0-7.512-51.391,11.392-64.8" transform="translate(41.538 26.426)" fill="none" stroke="#fff" stroke-linejoin="round" stroke-width="5"/>
    <path id="Path_7" data-name="Path 7" d="M219.231,147.586c119.349,0,216.1-14.69,216.1-32.8s-96.751-32.8-216.1-32.8" transform="translate(223.926 0)" fill="none" stroke="#fff" stroke-linejoin="round" stroke-width="5"/>
    <path id="Path_8" data-name="Path 8" d="M178.967,243.572c0-21.312,68.1-38.589,209.937-38.589" transform="translate(57.022 509.862)" fill="none" stroke="#fff" stroke-linejoin="round" stroke-width="5"/>
    <path id="Path_9" data-name="Path 9" d="M219.3,204.983" transform="translate(224.212 509.862)" fill="none" stroke="#fff" stroke-linejoin="round" stroke-width="5"/>
    <path id="Path_10" data-name="Path 10" d="M219.231,207.483" transform="translate(223.926 520.225)" fill="none" stroke="#fff" stroke-linejoin="round" stroke-width="5"/>
    <path id="Path_11" data-name="Path 11" d="M219.861,637.56H336.792c77.241,0,139.858-68.478,139.858-152.953l-24.883-365.05" transform="translate(226.538 155.75)" fill="none" stroke="#fff" stroke-linejoin="round" stroke-width="5"/>
    <path id="Path_12" data-name="Path 12" d="M429.8,243.572c0-21.312-68.108-38.589-209.937-38.589" transform="translate(226.538 509.862)" fill="none" stroke="#fff" stroke-linejoin="round" stroke-width="5"/>
    <path id="Path_13" data-name="Path 13" d="M220.33,204.983" transform="translate(228.482 509.862)" fill="none" stroke="#fff" stroke-linejoin="round" stroke-width="5"/>
    <path id="Path_14" data-name="Path 14" d="M220.4,207.483" transform="translate(228.764 520.225)" fill="none" stroke="#fff" stroke-linejoin="round" stroke-width="5"/>
    <path id="Path_15" data-name="Path 15" d="M219.231,185.959c125.642,0,227.492-14.685,227.492-32.8,0,0,7.512-51.391-11.392-64.8" transform="translate(223.926 26.426)" fill="none" stroke="#fff" stroke-linejoin="round" stroke-width="5"/>
    <path id="Path_16" data-name="Path 16" d="M219.231,159.48c125.642,0,227.492-14.685,227.492-32.8,0,0,14.391-10.45,0-25.726" transform="translate(223.926 78.631)" fill="none" stroke="#fff" stroke-linejoin="round" stroke-width="5"/>
    <path id="Path_17" data-name="Path 17" d="M180.922,100.953s-15.091,13.98,0,25.726c14.293,11.129,101.85,32.8,227.487,32.8" transform="translate(37.321 78.631)" fill="none" stroke="#fff" stroke-linejoin="round" stroke-width="5"/>
    <line id="Line_1" data-name="Line 1" x1="18.866" y2="21.706" transform="translate(202.62 226.049)" fill="none" stroke="#fff" stroke-linecap="round" stroke-linejoin="round" stroke-width="5"/>
    <line id="Line_2" data-name="Line 2" x1="18.866" y2="21.706" transform="translate(212.053 227.258)" fill="none" stroke="#fff" stroke-linecap="round" stroke-linejoin="round" stroke-width="5"/>
    <line id="Line_3" data-name="Line 3" x1="18.866" y2="21.706" transform="translate(224.813 226.049)" fill="none" stroke="#fff" stroke-linecap="round" stroke-linejoin="round" stroke-width="5"/>
    <line id="Line_4" data-name="Line 4" x2="18.866" y2="21.706" transform="translate(672.45 231.194)" fill="none" stroke="#fff" stroke-linecap="round" stroke-linejoin="round" stroke-width="5"/>
    <line id="Line_5" data-name="Line 5" x2="18.866" y2="21.706" transform="translate(663.017 232.404)" fill="none" stroke="#fff" stroke-linecap="round" stroke-linejoin="round" stroke-width="5"/>
    <line id="Line_6" data-name="Line 6" x2="18.866" y2="21.706" transform="translate(650.256 231.194)" fill="none" stroke="#fff" stroke-linecap="round" stroke-linejoin="round" stroke-width="5"/>
    <path id="Path_18" data-name="Path 18" d="M178.443,92.984s-1.286,23.154,0,32.158" transform="translate(52.478 45.598)" fill="none" stroke="#fff" stroke-linecap="round" stroke-linejoin="round" stroke-width="5"/>
    <path id="Path_19" data-name="Path 19" d="M180.05,93.984s-1.286,23.154,0,32.158" transform="translate(59.139 49.743)" fill="none" stroke="#fff" stroke-linecap="round" stroke-linejoin="round" stroke-width="5"/>
    <path id="Path_20" data-name="Path 20" d="M181.657,94.984s-1.286,23.154,0,32.158" transform="translate(65.801 53.888)" fill="none" stroke="#fff" stroke-linecap="round" stroke-linejoin="round" stroke-width="5"/>
    <path id="Path_21" data-name="Path 21" d="M261.085,92.984s1.286,23.154,0,32.158" transform="translate(397.422 45.598)" fill="none" stroke="#fff" stroke-linecap="round" stroke-linejoin="round" stroke-width="5"/>
    <path id="Path_22" data-name="Path 22" d="M259.478,93.984s1.286,23.154,0,32.158" transform="translate(390.76 49.743)" fill="none" stroke="#fff" stroke-linecap="round" stroke-linejoin="round" stroke-width="5"/>
    <path id="Path_23" data-name="Path 23" d="M257.87,94.984s1.286,23.154,0,32.158" transform="translate(384.095 53.888)" fill="none" stroke="#fff" stroke-linecap="round" stroke-linejoin="round" stroke-width="5"/>
    <path id="Path_24" data-name="Path 24" d="M174.315,140.842s30.871,3.092,62.6,7.383,98.614-9.1,108.9-7.383,83.183-2.763,99.473-3.524,89.188,7.512,113.2,4.085,75.265-8.654,85.653-7.61" transform="translate(37.738 214.2)" fill="none" stroke="#fff" stroke-linecap="round" stroke-linejoin="round" stroke-width="5"/>
    <path id="Path_25" data-name="Path 25" d="M174.315,139.991s42.021-13.167,73.747-8.881,115.768,2.49,126.059,4.2,84.9.571,101.192-.19,97.76-1.441,121.767-4.867,36.675,1.641,47.064,2.686" transform="translate(37.738 195.227)" fill="none" stroke="#fff" stroke-linecap="round" stroke-linejoin="round" stroke-width="5"/>
    <g id="bubble3">
      <circle id="Ellipse_1" data-name="Ellipse 1" cx="11.577" cy="11.577" r="11.577" transform="translate(619.384 388.981)" fill="none" stroke="#fff" stroke-linecap="round" stroke-linejoin="round" stroke-width="5"/>
      <circle id="Ellipse_2" data-name="Ellipse 2" cx="11.577" cy="11.577" r="11.577" transform="translate(232.102 544.342)" fill="none" stroke="#fff" stroke-linecap="round" stroke-linejoin="round" stroke-width="5"/>
    </g>
    <g id="bubble4">
      <circle id="Ellipse_3" data-name="Ellipse 3" cx="11.577" cy="11.577" r="11.577" transform="translate(239.19 373.835)" fill="none" stroke="#fff" stroke-linecap="round" stroke-linejoin="round" stroke-width="5"/>
    </g>
    <g id="bubble1">
      <circle id="Ellipse_4" data-name="Ellipse 4" cx="19.285" cy="19.285" r="19.285" transform="translate(250.772 441.556)" fill="none" stroke="#fff" stroke-linecap="round" stroke-linejoin="round" stroke-width="5"/>
    </g>
    <g id="bubble4-2" data-name="bubble4">
      <circle id="Ellipse_5" data-name="Ellipse 5" cx="11.577" cy="11.577" r="11.577" transform="translate(551.369 651.678)" fill="none" stroke="#fff" stroke-linecap="round" stroke-linejoin="round" stroke-width="5"/>
    </g>
    <g id="bubble2">
      <circle id="Ellipse_6" data-name="Ellipse 6" cx="22.309" cy="22.309" r="22.309" transform="translate(606.416 594.504)" fill="none" stroke="#fff" stroke-linecap="round" stroke-linejoin="round" stroke-width="5"/>
    </g>
    <g id="scoby-2" data-name="scoby" transform="translate(93.893 122.598)">
      <path id="Path_26" data-name="Path 26" d="M401.025,388.48C417.107,430.67,423.876,577.3,423.876,577.3c13.539-18.612-1.7-175.157-3.388-181.082s-7.615-7.615-7.615-7.615l2.536-17.772s11,6.77,14.385,14.385S437.416,555.3,437.416,555.3s4.227-48.232,4.227-72.774,1.691-64.308,1.691-71.923,0-21.154,1.7-29.615,9.306,10.151,9.306,10.151c-4.233,16.076-4.233,150.621-5.079,115.083s23.7-122.7,27.924-129.467,38.927-32.157,49.084-36.384,19.457-34.693,14.586-44.005-6.971-18.618-1.892-27.924-.851-16.076-8.868-24.542-46.14-22-51.212-22.845-28.775-5.079-48.233-16.921-81.235,2.536-88.808,11.842-46.583.851-57.42,2.542-2.7-10.157-29.289-3.388S206.044,254.9,206.044,254.9s-29.053,42.988-17.772,45.241S206.943,318.2,206.943,318.2s12.179,16.921,15.372,14.662-22.644,10.157-15.372,18.056,18.949,34.5,15.372,37.561,1.833,75.263,1.833,75.263,6.545-57.544,9.028-69.954,4.647,151.189,6.385,157.959,9.749-141.5,14.769-163.268,0,122.65,0,122.65l17.163-94.774L272.918,577.3s15.975-146.276,15.875-153.045c0,0,1.49-9.028,11.972-9.028s10.885,11.281,16.33,9.028,5.818,112.824,5.818,112.824L335.8,426.508,346.425,554,353.3,388.48l10.624,52.7v-52.7S380.4,417.486,377.979,473.9l5.747-85.415,7.443,199.368Z" transform="translate(0 0)" fill="none" stroke="#fff" stroke-linejoin="round" stroke-width="5"/>
      <path id="Path_27" data-name="Path 27" d="M251.538,205.492s-26.268,2.424-25.062,8.461,51.75,8.466,38.406,0Z" transform="translate(200.251 28.654)" fill="none" stroke="#fff" stroke-linejoin="round" stroke-width="5"/>
      <path id="Path_28" data-name="Path 28" d="M207.388,204.737s26.239,1.413,25.033,4.931-51.7,4.931-38.365,0Z" transform="translate(30.192 24.945)" fill="none" stroke="#fff" stroke-linejoin="round" stroke-width="5"/>
      <circle id="Ellipse_7" data-name="Ellipse 7" cx="3.617" cy="3.617" r="3.617" transform="translate(317.092 550.619)" fill="none" stroke="#fff" stroke-linejoin="round" stroke-width="5"/>
      <circle id="Ellipse_8" data-name="Ellipse 8" cx="3.617" cy="3.617" r="3.617" transform="translate(294.717 435.458)" fill="none" stroke="#fff" stroke-linejoin="round" stroke-width="5"/>
      <circle id="Ellipse_9" data-name="Ellipse 9" cx="3.617" cy="3.617" r="3.617" transform="translate(250.715 516.692)" fill="none" stroke="#fff" stroke-linejoin="round" stroke-width="5"/>
      <circle id="Ellipse_10" data-name="Ellipse 10" cx="3.617" cy="3.617" r="3.617" transform="translate(189.304 322.479)" fill="none" stroke="#fff" stroke-linejoin="round" stroke-width="5"/>
      <circle id="Ellipse_11" data-name="Ellipse 11" cx="9.982" cy="9.982" r="9.982" transform="translate(454.015 339.979)" fill="none" stroke="#fff" stroke-linejoin="round" stroke-width="5"/>
      <line id="Line_7" data-name="Line 7" x2="82.207" transform="translate(281.72 311.429)" fill="none" stroke="#fff" stroke-linecap="round" stroke-linejoin="round" stroke-width="5"/>
      <path id="Path_29" data-name="Path 29" d="M217.764,232.75s10.778-5.64,9.59-14.662" transform="translate(157.655 90.524)" fill="none" stroke="#fff" stroke-linecap="round" stroke-linejoin="round" stroke-width="5"/>
      <path id="Path_30" data-name="Path 30" d="M199.264,215.163s17.583-11.281,35.911,0" transform="translate(66.778 51.53)" fill="none" stroke="#fff" stroke-linecap="round" stroke-linejoin="round" stroke-width="5"/>
      <path id="Path_31" data-name="Path 31" d="M212.409,215.163s17.583-11.281,35.911,0" transform="translate(131.35 51.53)" fill="none" stroke="#fff" stroke-linecap="round" stroke-linejoin="round" stroke-width="5"/>
      <path id="Path_32" data-name="Path 32" d="M213.613,220.907s-2.708,28.438,0,25.73,4.659-25.169,6.563-21.219-.609,39.488,1.774,41.179,3.849-27.179,4.807-30.229,4.2,8.3,5.966,7.42,2.329-25.7,2.329-25.7" transform="translate(131.352 90.524)" fill="#fff"/>
      <circle id="Ellipse_12" data-name="Ellipse 12" cx="11.509" cy="11.509" r="11.509" transform="translate(232.196 285.253)" fill="#fff"/>
      <circle id="Ellipse_13" data-name="Ellipse 13" cx="22.722" cy="22.722" r="22.722" transform="translate(401.512 270.935)" fill="#fff"/>
    </g>
  </g>
</svg>
