<svg xmlns="http://www.w3.org/2000/svg" width="629.032" height="636.88" viewBox="0 0 629.032 636.88">
  <g id="Group_2" data-name="Group 2" transform="translate(-37.725 -61.018)">
    <path id="Path_157" data-name="Path 157" d="M166.434,64.662s12.584,53.242,11.134,73.571c0,0-51.792-25.168-65.344-13.552s5.81,55.177,39.69,54.21,21.3.014,21.3.014-22.265,5.8-21.3,33.866,13.552,22.264,13.552,22.264-22.155,10.648-22.693,17.426S185.8,268.92,185.8,268.92" transform="translate(170.219 0.266)" fill="none" stroke="#000" stroke-linecap="round" stroke-linejoin="round" stroke-width="6.5"/>
    <path id="Path_158" data-name="Path 158" d="M159.256,67.227s-11.985,50.707-10.6,70.065c0,0,49.321-23.97,62.228-12.906s-5.53,52.551-37.8,51.629-20.279.014-20.279.014,21.2,5.516,20.279,32.25-12.906,21.2-12.906,21.2,21.1,10.141,21.612,16.593-51.941,16.316-51.941,16.316" transform="translate(226.166 6.793)" fill="none" stroke="#000" stroke-linecap="round" stroke-linejoin="round" stroke-width="6.5"/>
    <line id="Line_6" data-name="Line 6" x1="26.621" transform="translate(347.787 249.824)" fill="none" stroke="#000" stroke-linecap="round" stroke-linejoin="round" stroke-width="6.5"/>
    <path id="Path_159" data-name="Path 159" d="M127.528,106.372s13.155,14.232,31.46,0" transform="translate(220.259 106.407)" fill="none" stroke="#000" stroke-linecap="round" stroke-linejoin="round" stroke-width="6.5"/>
    <g id="left-eye">
      <path id="Path_160" data-name="Path 160" d="M117.981,87.056s31.945,3.894,27.1,12.658S107.333,110.426,117.981,87.056Z" transform="translate(190.601 57.198)" fill="none" stroke="#000" stroke-linecap="round" stroke-linejoin="round" stroke-width="6.5"/>
    </g>
    <g id="right-eye">
      <path id="Path_161" data-name="Path 161" d="M142.266,107.46S173.314,99,167.26,91.08,128.364,86.014,142.266,107.46Z" transform="translate(249.115 57.213)" fill="none" stroke="#000" stroke-linecap="round" stroke-linejoin="round" stroke-width="6.5"/>
    </g>
    <path id="Path_162" data-name="Path 162" d="M217.512,108.157" transform="translate(449.245 110.949)" fill="none" stroke="#000" stroke-linecap="round" stroke-linejoin="round" stroke-width="6.5"/>
    <path id="Path_163" data-name="Path 163" d="M94.074,127.623s26.128,29.039,48.882,23.232c0,0,95.357,75.506,163.118-16.458,0,0,19.361-1.935,14.523-18.394" transform="translate(135.128 130.915)" fill="none" stroke="#000" stroke-linecap="round" stroke-linejoin="round" stroke-width="6.5"/>
    <path id="Path_164" data-name="Path 164" d="M118.856,65.5c.174-.06,11.893,19.652,19.138,65.468" transform="translate(198.191 2.393)" fill="none" stroke="#000" stroke-linecap="round" stroke-linejoin="round" stroke-width="6.5" stroke-dasharray="2"/>
    <path id="Path_165" data-name="Path 165" d="M138.867,121.354c.138,20.372.174-21.2,14.6-52.079" transform="translate(249.114 12.005)" fill="none" stroke="#000" stroke-linecap="round" stroke-linejoin="round" stroke-width="6.5" stroke-dasharray="2"/>
    <path id="Path_166" data-name="Path 166" d="M101.448,132.116s25.168,22.265,39.687,18.394" transform="translate(153.893 171.919)" fill="none" stroke="#000" stroke-linecap="round" stroke-linejoin="round" stroke-width="6.5"/>
    <path id="Path_167" data-name="Path 167" d="M175.425,129.385s-22.264,22.265-30.01,24.2" transform="translate(265.777 164.969)" fill="none" stroke="#000" stroke-linecap="round" stroke-linejoin="round" stroke-width="6.5"/>
    <circle id="Ellipse_15" data-name="Ellipse 15" cx="9.922" cy="9.922" r="9.922" transform="translate(219.522 389.222)" fill="none" stroke="#000" stroke-linecap="round" stroke-linejoin="round" stroke-width="6.5"/>
    <circle id="Ellipse_16" data-name="Ellipse 16" cx="9.922" cy="9.922" r="9.922" transform="translate(219.522 389.222)" fill="none" stroke="#000" stroke-linecap="round" stroke-linejoin="round" stroke-width="6.5"/>
    <circle id="Ellipse_17" data-name="Ellipse 17" cx="9.922" cy="9.922" r="9.922" transform="translate(468.066 389.222)" fill="none" stroke="#000" stroke-linecap="round" stroke-linejoin="round" stroke-width="6.5"/>
    <path id="Path_168" data-name="Path 168" d="M79.327,158.947c0,6.536,28.074,94.627,118.1,47.191" transform="translate(97.601 240.197)" fill="none" stroke="#000" stroke-linecap="round" stroke-linejoin="round" stroke-width="6.5"/>
    <path id="Path_169" data-name="Path 169" d="M79.327,158.947c0,6.536,28.074,94.627,118.1,47.191" transform="translate(97.601 240.197)" fill="none" stroke="#000" stroke-linecap="round" stroke-linejoin="round" stroke-width="6.5"/>
    <path id="Path_170" data-name="Path 170" d="M262.973,158.947c0,6.536-28.074,94.627-118.1,47.191" transform="translate(264.388 240.197)" fill="none" stroke="#000" stroke-linecap="round" stroke-linejoin="round" stroke-width="6.5"/>
    <path id="Path_171" data-name="Path 171" d="M191.415,164.265H163.387V145.387H147.767v18.878H119.739v15.62h28.028v54.188h15.619V179.885h28.028Z" transform="translate(200.438 205.691)" fill="none" stroke="#000" stroke-linecap="round" stroke-linejoin="round" stroke-width="6.5"/>
    <line id="Line_7" data-name="Line 7" y1="9.532" x2="7.299" transform="translate(387.981 341.546)" fill="none" stroke="#000" stroke-linecap="round" stroke-linejoin="round" stroke-width="6.5"/>
    <line id="Line_8" data-name="Line 8" x1="7.299" y1="9.532" transform="translate(318.282 341.546)" fill="none" stroke="#000" stroke-linecap="round" stroke-linejoin="round" stroke-width="6.5"/>
    <line id="Line_9" data-name="Line 9" y1="10.164" x2="9.568" transform="translate(317.049 403.984)" fill="none" stroke="#000" stroke-linecap="round" stroke-linejoin="round" stroke-width="6.5"/>
    <line id="Line_10" data-name="Line 10" x1="13.283" y1="13.467" transform="translate(381.497 402.689)" fill="none" stroke="#000" stroke-linecap="round" stroke-linejoin="round" stroke-width="6.5"/>
    <line id="Line_11" data-name="Line 11" x1="5.324" y1="10.164" transform="translate(379.248 414.149)" fill="none" stroke="#000" stroke-linecap="round" stroke-linejoin="round" stroke-width="6.5"/>
    <line id="Line_12" data-name="Line 12" y1="10.164" x2="9.568" transform="translate(326.617 414.149)" fill="none" stroke="#000" stroke-linecap="round" stroke-linejoin="round" stroke-width="6.5"/>
    <line id="Line_13" data-name="Line 13" x2="8.157" y2="9.438" transform="translate(331.401 332.107)" fill="none" stroke="#000" stroke-linecap="round" stroke-linejoin="round" stroke-width="6.5"/>
    <line id="Line_14" data-name="Line 14" x1="7.744" y2="9.438" transform="translate(371.504 332.107)" fill="none" stroke="#000" stroke-linecap="round" stroke-linejoin="round" stroke-width="6.5"/>
    <line id="Line_15" data-name="Line 15" y2="18.667" transform="translate(356.015 322.879)" fill="none" stroke="#000" stroke-linecap="round" stroke-linejoin="round" stroke-width="6.5"/>
    <line id="Line_16" data-name="Line 16" y1="6.199" x2="12.343" transform="translate(301.805 389.222)" fill="none" stroke="#000" stroke-linecap="round" stroke-linejoin="round" stroke-width="6.5"/>
    <line id="Line_17" data-name="Line 17" x1="13.978" y1="11.663" transform="translate(395.28 392.321)" fill="none" stroke="#000" stroke-linecap="round" stroke-linejoin="round" stroke-width="6.5"/>
    <path id="Path_172" data-name="Path 172" d="M94.347,250V208.612L431.225,199.9l-2.9,36.3Z" transform="translate(135.823 344.41)" fill="none" stroke="#000" stroke-linecap="round" stroke-linejoin="round" stroke-width="6.5"/>
    <path id="Path_176" data-name="Path 176" d="M89.328,230.051S87.5,195.16,122.8,185.681c68.048-18.27,100.866,24.686,100.866,24.686s26.461,37.9,8.242,37.078-24.019-22.364-24.019-22.364-10.556-.83-15.632,8.281" transform="translate(118.46 296.714)" fill="none" stroke="#000" stroke-linecap="round" stroke-linejoin="round" stroke-width="6.5"/>
    <path id="Path_177" data-name="Path 177" d="M65.861,181.7c36.071-3.6,18.851-6.483,36.071-3.6,27.121,4.534,66.237,20.492,66.237,20.492s-28.308,12.63-27.468,59.8" transform="translate(63.333 285.928)" fill="none" stroke="#000" stroke-linecap="round" stroke-linejoin="round" stroke-width="6.5"/>
    <line id="Line_18" data-name="Line 18" x1="3.872" y2="23.319" transform="translate(181.768 439.763)" fill="none" stroke="#000" stroke-linecap="round" stroke-linejoin="round" stroke-width="6.5"/>
    <path id="Path_178" data-name="Path 178" d="M200.658,156.148c0,3.871-4.31,50.484-21.031,82.841" transform="translate(352.838 233.074)" fill="none" stroke="#000" stroke-linecap="round" stroke-linejoin="round" stroke-width="6.5"/>
    <path id="Path_179" data-name="Path 179" d="M204.034,544.311s-59.052,42.392-139.4,34.646,69.7-246.848,69.7-246.848,15.491-59.052,94.868-73.571c0,0-24.2-183.929,107.452-193.61,27.936-2.052,49.421,4.566,65.925,16.352,61.278,43.767,53.908,158.776,53.146,165.638,0,0,99.706,44.533,105.516,73.571,0,0,93.9,136.494,74.539,167.471s-44.937,32.994-44.937,32.994" transform="translate(0 0)" fill="none" stroke="#000" stroke-linecap="round" stroke-linejoin="round" stroke-width="6.5"/>
    <path id="Path_180" data-name="Path 180" d="M76.037,177.25" transform="translate(89.228 286.773)" fill="none" stroke="#000" stroke-linecap="round" stroke-linejoin="round" stroke-width="6.5"/>
    <path id="Path_181" data-name="Path 181" d="M180.8,176.984s79.8,3.449,69.633,52.888" transform="translate(355.82 286.096)" fill="none" stroke="#000" stroke-linecap="round" stroke-linejoin="round" stroke-width="6.5"/>
    <path id="Path_182" data-name="Path 182" d="M100.3,177.25S54.846,212.967,69.365,282.585" transform="translate(64.968 286.773)" fill="none" stroke="#000" stroke-linecap="round" stroke-linejoin="round" stroke-width="6.5"/>
    <path id="Path_183" data-name="Path 183" d="M125.207,126.927s21.559,13.8,41.633,0" transform="translate(214.353 158.714)" fill="none" stroke="#000" stroke-linecap="round" stroke-linejoin="round" stroke-width="6.5"/>
    <path id="Path_184" data-name="Path 184" d="M159.054,206.222s127.274,24.629,51.151,51.767-115.3,48.031-26.451,58.46" transform="translate(233.545 360.499)" fill="none" stroke="#000" stroke-linecap="round" stroke-linejoin="round" stroke-width="6.5"/>
    <g id="spark">
      <line id="Line_19" data-name="Line 19" y1="10.674" x2="11.53" transform="translate(431.891 654.877)" fill="none" stroke="#000" stroke-linecap="round" stroke-linejoin="round" stroke-width="6.5"/>
      <line id="Line_20" data-name="Line 20" y1="3.548" x2="15.66" transform="translate(431.891 671.254)" fill="none" stroke="#000" stroke-linecap="round" stroke-linejoin="round" stroke-width="6.5"/>
      <line id="Line_21" data-name="Line 21" x2="10.602" y2="9.962" transform="translate(427.054 683.341)" fill="none" stroke="#000" stroke-linecap="round" stroke-linejoin="round" stroke-width="6.5"/>
    </g>
    <g id="left-pinky">
      <path id="Path_186" data-name="Path 186" d="M132.395,201.843c-5.076,9.113,3.254,22.172,3.254,22.172s-48.084,3.506-36.49-25.483" transform="translate(108.477 327.233)" fill="#fff" stroke="#000" stroke-linecap="round" stroke-linejoin="round" stroke-width="6.5"/>
    </g>
    <g id="left-middle">
      <path id="Path_188" data-name="Path 188" d="M132.395,201.843c-5.076,9.113,3.254,22.172,3.254,22.172s-1.791.131-4.9.133c-11.437.01-40.946-2.222-31.588-25.616" transform="translate(143.477 328.233)" fill="#fff" stroke="#000" stroke-linecap="round" stroke-linejoin="round" stroke-width="6.5"/>
    </g>
    <g id="left-pointer">
      <path id="Path_189" data-name="Path 189" d="M132.395,201.843c-5.076,9.113,3.254,22.172,3.254,22.172s-48.084,3.506-36.49-25.483" transform="translate(178.477 328.233)" fill="#fff" stroke="#000" stroke-linecap="round" stroke-linejoin="round" stroke-width="6.5"/>
    </g>
    <path id="Path_190" data-name="Path 190" d="M234.2,230.051s1.782-34.891-32.556-44.369c-66.178-18.27-98.093,24.686-98.093,24.686s-25.734,37.9-8.015,37.078S118.9,225.081,118.9,225.081s10.266-.83,15.2,8.281" transform="translate(354.461 292.714)" fill="none" stroke="#000" stroke-linecap="round" stroke-linejoin="round" stroke-width="6.5"/>
    <g id="right-pinky">
      <path id="Path_191" data-name="Path 191" d="M100.609,201.843c5.076,9.113-3.254,22.172-3.254,22.172s48.084,3.506,36.49-25.483" transform="translate(454.97 323.233)" fill="#fff" stroke="#000" stroke-linecap="round" stroke-linejoin="round" stroke-width="6.5"/>
    </g>
    <g id="right-middle">
      <path id="right-middle-2" data-name="right-middle" d="M100.608,201.843c5.076,9.113-3.254,22.172-3.254,22.172s1.791.131,4.9.133c11.437.01,40.946-2.222,31.588-25.616" transform="translate(421.243 324.233)" fill="#fff" stroke="#000" stroke-linecap="round" stroke-linejoin="round" stroke-width="6.5"/>
    </g>
    <g id="right-pointer">
      <path id="Path_193" data-name="Path 193" d="M100.609,201.843c5.076,9.113-3.254,22.172-3.254,22.172s48.084,3.506,36.49-25.483" transform="translate(387.515 323.233)" fill="#fff" stroke="#000" stroke-linecap="round" stroke-linejoin="round" stroke-width="6.5"/>
    </g>
  </g>
</svg>
