<svg xmlns="http://www.w3.org/2000/svg" viewBox="0 0 170.04 178.87"><defs><style>.cls-1,.cls-2{fill:none;stroke:#000;stroke-linecap:round;stroke-linejoin:round;stroke-width:1.5px;}.cls-2{stroke-dasharray:2;}</style></defs><g id="Layer_2" data-name="Layer 2"><g id="Layer_1-2" data-name="Layer 1"><path class="cls-1" d="M84.16.85s3.55,15,3.14,20.76c0,0-14.61-7.1-18.43-3.82s1.64,15.56,11.2,15.29,6,0,6,0-6.29,1.64-6,9.56,3.82,6.28,3.82,6.28-6.25,3-6.4,4.91,12.14,4.65,12.14,4.65"/><path class="cls-1" d="M97.92,3.42s-3.38,14.3-3,19.77c0,0,13.92-6.77,17.56-3.65s-1.56,14.83-10.67,14.57-5.72,0-5.72,0,6,1.56,5.72,9.1-3.64,6-3.64,6,5.95,2.86,6.1,4.68-14.65,4.61-14.65,4.61"/><line class="cls-1" x1="94.81" y1="53.02" x2="87.3" y2="53.02"/><path class="cls-1" d="M87.3,42.56s3.72,4,8.88,0"/><path class="cls-1" d="M76.24,23.25s9,1.09,7.65,3.55S73.24,29.8,76.24,23.25Z"/><path class="cls-1" d="M99.6,29s8.76-2.38,7.05-4.62S95.68,22.94,99.6,29Z"/><path class="cls-1" d="M53.85,55.47s7.37,8.2,13.79,6.56c0,0,26.9,21.3,46-4.65,0,0,5.46-.54,4.09-5.18"/><path class="cls-2" d="M78.63,1.69c.05,0,3.36,5.54,5.4,18.47"/><path class="cls-2" d="M98.64,20.16c0,5.75,0-6,4.12-14.69"/><path class="cls-1" d="M61.22,68.31s7.1,6.28,11.2,5.19"/><path class="cls-1" d="M113.66,65.58s-6.28,6.28-8.47,6.82"/><circle class="cls-1" cx="53.92" cy="95.14" r="2.8"/><circle class="cls-1" cx="53.92" cy="95.14" r="2.8"/><circle class="cls-1" cx="124.04" cy="95.14" r="2.8"/><path class="cls-1" d="M39.1,95.14c0,1.84,7.92,26.69,33.32,13.31"/><path class="cls-1" d="M39.1,95.14c0,1.84,7.92,26.69,33.32,13.31"/><path class="cls-1" d="M138,95.14c0,1.84-7.92,26.69-33.31,13.31"/><polygon class="cls-1" points="99.74 86.91 91.83 86.91 91.83 81.58 87.42 81.58 87.42 86.91 79.52 86.91 79.52 91.31 87.42 91.31 87.42 106.6 91.83 106.6 91.83 91.31 99.74 91.31 99.74 86.91"/><line class="cls-1" x1="98.64" y1="81.58" x2="100.7" y2="78.89"/><line class="cls-1" x1="81.04" y1="81.58" x2="78.98" y2="78.89"/><line class="cls-1" x1="78.63" y1="99.37" x2="81.33" y2="96.51"/><line class="cls-1" x1="98.64" y1="97.94" x2="94.81" y2="95.14"/><line class="cls-1" x1="97.68" y1="102.24" x2="96.18" y2="99.37"/><line class="cls-1" x1="81.33" y1="102.24" x2="84.03" y2="99.37"/><line class="cls-1" x1="82.68" y1="76.23" x2="84.98" y2="78.89"/><line class="cls-1" x1="96.18" y1="76.23" x2="94" y2="78.89"/><line class="cls-1" x1="89.63" y1="73.62" x2="89.63" y2="78.89"/><line class="cls-1" x1="74.33" y1="94.09" x2="77.81" y2="92.34"/><line class="cls-1" x1="104.65" y1="96.51" x2="100.7" y2="93.21"/><polygon class="cls-1" points="54.12 150.22 54.12 138.55 149.16 136.09 148.34 146.33 54.12 150.22"/><path class="cls-1" d="M132.26,128.1a4.88,4.88,0,0,1,4.41,2.34c1.43,2.57-.92,6.25-.92,6.25s13.56,1,10.29-7.19"/><path class="cls-1" d="M142.09,128.1a4.87,4.87,0,0,1,4.41,2.34c1.43,2.57-.92,5.25-.92,5.25s13.56,2,10.29-6.19c0,0,.52-9.84-9.44-12.51-19.2-5.16-28.46,7-28.46,7s-7.46,10.69-2.32,10.46,6.77-6.31,6.77-6.31a4.87,4.87,0,0,1,4.41,2.34c1.44,2.57-.91,6.25-.91,6.25s13.56,1,10.29-7.19"/><path class="cls-1" d="M71.43,129.74A4.87,4.87,0,0,0,67,132.08c-1.43,2.57.92,6.25.92,6.25s-13.57,1-10.3-7.19"/><path class="cls-1" d="M61.59,129.74a4.85,4.85,0,0,0-4.4,2.34c-1.44,2.57.91,6.25.91,6.25s-13.56,1-10.29-7.19c0,0-.52-9.84,9.44-12.51,19.2-5.16,28.46,7,28.46,7s7.46,10.69,2.32,10.46-6.77-6.31-6.77-6.31a4.87,4.87,0,0,0-4.41,2.34c-1.43,2.57.92,6.25.92,6.25s-13.57,1-10.3-7.19"/><path class="cls-1" d="M25.64,114.46c10.17-1,5.32-1.83,10.17-1,7.66,1.28,18.69,5.78,18.69,5.78s-8,3.57-7.75,16.87"/><line class="cls-1" x1="41.56" y1="106.6" x2="40.47" y2="113.18"/><path class="cls-1" d="M145.34,92.34c0,1.09-1.22,14.24-5.94,23.37"/><path class="cls-1" d="M46.75,136.09a62.7,62.7,0,0,1-39.32,9.78c-22.67-2.19,19.66-69.64,19.66-69.64s4.37-16.66,26.76-20.76c0,0-6.83-51.88,30.31-54.62,7.88-.57,14,1.29,18.6,4.62,17.29,12.34,15.21,44.79,15,46.73,0,0,28.13,12.56,29.77,20.75,0,0,26.49,38.51,21,47.25s-12.68,9.3-12.68,9.3"/><path class="cls-1" d="M140.58,113.18s22.51,1,19.64,14.92"/><path class="cls-1" d="M35.81,113.44S23,123.52,27.09,143.16"/><path class="cls-1" d="M85,63.12s6.09,3.89,11.75,0"/><path class="cls-1" d="M100,142.41s35.9,7,14.43,14.61-32.53,13.55-7.46,16.49"/><line class="cls-1" x1="111.03" y1="170.3" x2="114.28" y2="167.28"/><line class="cls-1" x1="111.03" y1="172.91" x2="115.45" y2="171.9"/><line class="cls-1" x1="109.67" y1="175.31" x2="112.66" y2="178.12"/></g></g></svg>